<svg width="53" height="54" viewBox="0 0 53 54" fill="none" xmlns="http://www.w3.org/2000/svg">
<path d="M27.7785 27.9628C28.6556 27.2072 25.7622 23.9864 21.2946 22.2336C19.3126 21.5001 17.1251 21.0345 14.8633 20.8644C12.6015 20.6944 10.312 20.8235 8.13219 21.2441C5.44924 21.7757 3.95039 22.7961 2.33021 23.2455C2.27238 23.2496 2.02827 23.3277 2.03092 23.4114C2.03356 23.4951 2.57347 23.6402 3.07481 23.7652C3.83009 23.997 4.53452 24.2938 5.16918 24.6475C5.5652 24.8409 5.9008 25.0232 6.16055 25.1727L6.73534 25.5213C8.65139 26.7289 13.3083 27.4694 13.3083 27.4694C15.2202 27.7306 17.1524 27.9233 19.096 28.0466C19.096 28.0466 20.3902 28.1539 22.5134 28.2488C23.4768 28.3244 24.4479 28.348 25.4167 28.3194C26.8393 28.2195 27.5448 28.1699 27.7785 27.9628Z" fill="#238700"/>
<path d="M32.353 29.6077C21.0678 25.2044 13.6454 23.657 1.71223 23.4269" stroke="#91E6BE" stroke-width="0.288857"/>
<path d="M23.4897 30.3456C16.3749 40.1519 10.9665 45.4669 1.05124 52.1125" stroke="#238700" stroke-width="0.577714"/>
<path d="M6.64062 6.71887C10.1661 17.298 13.6916 22.5875 25.5079 27.7243" stroke="#B6D770" stroke-width="0.577714"/>
<path d="M22.5058 2.4878C25.6113 14.1993 24.5511 18.5767 23.438 30.4631" stroke="#A8D360" stroke-width="0.577714"/>
<path d="M29.4821 28.7765C29.103 27.8081 32.7219 25.9205 36.9749 25.8706C38.8434 25.8878 40.7631 26.2126 42.619 26.8254C44.4748 27.4382 46.2285 28.3265 47.7748 29.437C49.6722 30.8163 50.4324 32.2303 51.525 33.1774C51.569 33.2005 51.7293 33.3525 51.6925 33.4261C51.6557 33.4996 51.1694 33.4463 50.7219 33.3881C50.0296 33.3392 49.3505 33.3652 48.703 33.4654C48.3102 33.5036 47.9697 33.5524 47.7027 33.5977L47.1046 33.7136C45.0916 34.1405 41.1088 33.226 41.1088 33.226C39.4913 32.8124 37.8863 32.3311 36.301 31.7842C36.301 31.7842 35.2349 31.4424 33.5196 30.8096C32.7278 30.5514 31.9515 30.2443 31.1986 29.8916C30.1171 29.3221 29.5808 29.0397 29.4821 28.7765Z" fill="#238700"/>
<path d="M25.2303 27.342C24.4531 26.4975 27.3633 23.0058 31.6619 21.1527C33.5662 20.3792 35.6472 19.9032 37.7799 19.7532C39.9127 19.6033 42.0533 19.7825 44.0733 20.2801C46.5588 20.9079 47.9034 22.0535 49.3966 22.5736C49.4506 22.5791 49.6749 22.6689 49.6674 22.7608C49.6598 22.8527 49.1444 23.0034 48.6664 23.1325C47.9436 23.3749 47.2646 23.6895 46.6476 24.0678C46.2643 24.2738 45.9383 24.4687 45.6855 24.6287L45.125 25.0023C43.2538 26.2979 38.839 27.0356 38.839 27.0356C37.029 27.2915 35.2042 27.4717 33.3729 27.5755C33.3729 27.5755 32.1519 27.6723 30.1537 27.742C29.2451 27.8094 28.3324 27.8195 27.4251 27.7722C26.0962 27.6392 25.4371 27.5733 25.2303 27.342Z" fill="#238700"/>
<path d="M25.2636 26.0479C25.8824 25.0665 30.6575 26.2175 34.1884 29.171C35.7021 30.4974 36.9626 32.0868 37.8943 33.844C38.826 35.6012 39.4097 37.4899 39.6104 39.3969C39.8406 41.7491 39.1062 43.3273 39.0922 44.7946C39.1059 44.8426 39.0914 45.0675 38.9906 45.096C38.8899 45.1244 38.5428 44.7431 38.2322 44.3855C37.7122 43.8626 37.1311 43.4044 36.5046 43.0231C36.1463 42.7752 35.8206 42.5718 35.5585 42.4175L34.9575 42.0824C32.8993 40.9823 30.5152 37.5069 30.5152 37.5069C29.5874 36.0644 28.7349 34.5807 27.9616 33.0624C27.9616 33.0624 27.4164 32.0605 26.619 30.3874C26.2183 29.64 25.8773 28.8676 25.5993 28.0779C25.2601 26.8971 25.0919 26.3115 25.2636 26.0479Z" fill="#238700"/>
<path d="M27.698 26.5436C26.8934 25.7284 22.1915 27.4462 19.0778 30.6462C17.7534 32.0733 16.7343 33.7069 16.0816 35.4489C15.4289 37.1909 15.1561 39.0055 15.2795 40.7837C15.4494 42.9748 16.4758 44.3218 16.7437 45.6668C16.7378 45.7128 16.7916 45.9172 16.8999 45.9294C17.0082 45.9415 17.2985 45.5434 17.5555 45.1722C17.999 44.6202 18.5162 44.1191 19.0933 43.6823C19.4182 43.4052 19.7173 43.1734 19.9597 42.9954L20.5187 42.6047C22.441 41.3098 24.2875 37.7895 24.2875 37.7895C24.9906 36.3369 25.6092 34.8568 26.1407 33.356C26.1407 33.356 26.5271 32.3609 27.0565 30.7146C27.3386 29.9731 27.5553 29.2168 27.7042 28.4534C27.8483 27.3226 27.9198 26.7618 27.698 26.5436Z" fill="#238700"/>
<path d="M23.1441 27.9632C23.2244 26.9797 19.4729 26.5096 15.6454 27.8775C13.9744 28.5131 12.3398 29.438 10.8399 30.5969C9.33993 31.7559 8.00545 33.1248 6.91652 34.6216C5.58479 36.4731 5.28228 37.9778 4.55637 39.1793C4.52315 39.2144 4.42016 39.4022 4.47287 39.4551C4.52559 39.5081 4.94741 39.2994 5.33312 39.0992C5.94085 38.8261 6.5568 38.6237 7.16443 38.4974C7.52687 38.4009 7.8453 38.331 8.09688 38.2825L8.6644 38.1865C10.5841 37.8962 13.9106 35.764 13.9106 35.764C15.2503 34.8607 16.5605 33.9015 17.8355 32.8908C17.8355 32.8908 18.7 32.2342 20.0685 31.1042C20.7094 30.6127 21.3232 30.083 21.9038 29.5207C22.7209 28.6572 23.1262 28.229 23.1441 27.9632Z" fill="#238700"/>
<path d="M45.3477 4.95581C40.8377 16.9455 36.2546 20.8245 22.9092 26.7228" stroke="#A3CE6D" stroke-width="0.577714"/>
<path d="M48.3193 16.24C41.2684 25.0559 40.5419 28.9701 25.4037 26.8192" stroke="#A0D38E" stroke-width="0.577714"/>
<path d="M50.0181 22.785C40.3985 21.7328 34.6172 22.6262 26.236 26.7165" stroke="#91E6BE" stroke-width="0.288857"/>
<path d="M51.9119 33.3371C44.0238 27.7302 35.6954 28.0372 26.3839 27.5247" stroke="#91E6BE" stroke-width="0.288857"/>
<path d="M3.46826 15.1824C6.84808 27.2289 19.3329 27.5246 22.8583 27.5246" stroke="#B3CE64" stroke-width="0.577714"/>
<path d="M24.6216 27.1719C15.9795 30.3784 10.4884 33.416 3.95264 39.6478" stroke="#91E6BE" stroke-width="0.288857"/>
<path d="M24.9731 27.5244C18.6455 33.3778 16.1986 38.5357 17.0388 46.5277" stroke="#91E6BE" stroke-width="0.288857"/>
<path d="M39.1219 44.8031C38.4298 36.2099 32.8328 32.1535 26.031 27.8768" stroke="#91E6BE" stroke-width="0.288857"/>
<path d="M29.2043 24.3507C29.2043 26.4929 27.468 28.2296 25.3262 28.2296C23.1845 28.2296 21.4482 26.4929 21.4482 24.3507C21.4482 22.2084 23.1845 19.4138 25.3262 19.4138C27.468 19.4138 29.2043 22.2084 29.2043 24.3507Z" fill="#B8CB46"/>
<path d="M27.0889 19.5417C26.0817 22.3084 26.2997 20.7274 25.3262 20.7274C24.3527 20.7274 24.5707 22.3084 23.5635 19.5417C23.5635 18.8868 24.3527 18.356 25.3262 18.356C26.2997 18.356 27.0889 18.8868 27.0889 19.5417Z" fill="#418010"/>
<path d="M25.7657 20.4717C25.7657 20.4717 26.7358 22.7892 26.7358 24.3506C26.7358 25.9121 25.7657 28.2296 25.7657 28.2296" stroke="#91E6BE" stroke-width="0.288857"/>
<path d="M24.5336 20.4717C24.5336 20.4717 23.5635 22.7892 23.5635 24.3506C23.5635 25.9121 24.269 28.2296 24.269 28.2296" stroke="#91E6BE" stroke-width="0.288857"/>
<path d="M23.5629 19.7888C23.5629 19.7888 23.7647 20.4765 25.3258 20.4719C26.8869 20.4674 27.0885 19.7662 27.0885 19.7662" stroke="#91E6BE" stroke-width="0.288857"/>
<ellipse rx="0.443728" ry="2.11596" transform="matrix(0.926317 -0.376744 0.376565 0.92639 6.65119 7.01862)" fill="#FFF500"/>
<ellipse rx="0.443722" ry="2.11595" transform="matrix(0.909033 0.416724 -0.416547 0.909114 45.1553 5.68497)" fill="#FFF500"/>
<ellipse rx="0.443701" ry="2.11611" transform="matrix(0.816433 0.577441 -0.577229 0.816583 47.7096 16.8135)" fill="#FFF500"/>
<ellipse rx="0.443732" ry="2.1159" transform="matrix(0.942958 -0.332911 0.333131 0.942881 3.27271 14.8755)" fill="#FFF500"/>
<ellipse rx="0.44375" ry="2.11586" transform="matrix(0.977091 -0.21282 0.211536 0.97737 22.5701 2.16238)" fill="#FFF500"/>
</svg>
