<svg width="49" height="50" viewBox="0 0 49 50" fill="none" xmlns="http://www.w3.org/2000/svg">
<path d="M21.7903 14.1713C21.7903 14.1713 25.4102 18.7331 25.4102 24.3251C17.5109 21.6823 17.4907 20.3375 17.4907 20.3375C13.6375 16.6451 11.0128 17.2198 11.4565 10.9536C17.7142 10.2589 17.9371 10.4789 21.7903 14.1713Z" fill="#675541"/>
<path d="M21.005 14.4435C23.8289 17.1497 24.2295 22.2184 24.2295 22.2184C24.2295 22.2184 20.6042 20.0988 17.7803 17.3926C14.9563 14.6865 11.5434 15.5506 11.8686 10.9582C16.4547 10.4491 18.181 11.7374 21.005 14.4435Z" fill="#9C7050"/>
<ellipse rx="4.14773" ry="1.70091" transform="matrix(0.770895 0.636962 -0.63824 0.769837 18.8365 15.7136)" fill="#604747"/>
<path d="M31.709 15.8569C31.709 15.8569 29.422 20.8482 24.6489 23.778C22.7688 15.6776 22.9451 14.9398 22.9451 14.9398C24.0794 9.72938 23.1756 7.81504 28.7565 4.90924C32.6259 9.86541 32.8433 10.6464 31.709 15.8569Z" fill="#675541"/>
<path d="M30.7769 14.8552C29.9456 18.6739 25.8288 21.6701 25.8288 21.6701C25.8288 21.6701 25.7399 17.4775 26.5712 13.6588C27.4025 9.84015 24.878 7.39127 28.9682 5.26165C31.804 8.89395 31.6082 11.0366 30.7769 14.8552Z" fill="#9C7050"/>
<ellipse rx="4.14258" ry="1.70303" transform="matrix(-0.139941 0.990435 -0.989961 -0.139402 28.56 13.6794)" fill="#604747"/>
<path d="M35.4229 23.0829C35.4229 23.0829 30.1934 24.7773 24.8034 23.2491C29.5083 16.3877 30.1718 16.0184 30.1718 16.0184C34.7833 13.3283 35.5844 11.3689 41.5031 13.5072C40.4636 19.7047 40.0344 20.3927 35.4229 23.0829Z" fill="#675541"/>
<path d="M35.5314 21.7198C32.1517 23.6914 27.1566 22.6908 27.1566 22.6908C27.1566 22.6908 30.1898 19.7897 33.5695 17.8181C36.9492 15.8465 37.0485 12.3339 41.3862 13.901C40.6244 18.443 38.9111 19.7482 35.5314 21.7198Z" fill="#9C7050"/>
<ellipse rx="4.14652" ry="1.70141" transform="matrix(-0.824614 0.566466 -0.567271 -0.823001 34.8993 19.2944)" fill="#604747"/>
<path d="M16.3225 27.9355C16.3225 27.9355 21.7299 27.2016 25.4134 22.9865C17.7219 19.796 16.2955 20.6157 16.2955 20.6157C10.9606 20.871 11.0477 20.0552 6.09375 23.9108C10.3502 28.54 10.9875 28.1907 16.3225 27.9355Z" fill="#675541"/>
<path d="M15.5857 27.5443C19.4956 27.3572 23.1363 23.7994 23.1363 23.7994C23.1363 23.7994 19.009 23.0186 15.0991 23.2057C11.1892 23.3928 9.18735 20.5023 6.4072 24.1773C9.52665 27.5699 11.6757 27.7314 15.5857 27.5443Z" fill="#9C7050"/>
<ellipse rx="4.14716" ry="1.70115" transform="matrix(1.00049 0.0259562 0.0260012 -0.998839 14.7911 25.1674)" fill="#604747"/>
<path d="M33.1475 28.4064C33.1475 28.4064 29.6122 24.6431 24.0542 23.9852C27.5113 31.3614 27.2429 31.8984 27.2429 31.8984C30.1937 35.1192 29.4186 39.1057 35.699 39.4028C37.1274 33.2759 36.3631 32.6639 33.1475 28.4064Z" fill="#675541"/>
<path d="M33.3519 29.5316C30.9917 26.414 25.9954 25.4197 25.9954 25.4197C25.9954 25.4197 27.6776 29.2623 30.0378 32.3799C32.3979 35.4975 31.1363 38.778 35.7441 38.9969C36.7907 34.5118 35.7121 32.6491 33.3519 29.5316Z" fill="#9C7050"/>
<ellipse rx="4.14644" ry="1.70144" transform="matrix(-0.542961 -0.839526 -0.840688 0.541878 31.8349 31.5277)" fill="#604747"/>
<path d="M27.6949 33.2127C27.6949 33.2127 28.2997 27.8748 25.2042 23.2123C20.0849 29.7712 21.2477 31.067 21.2477 31.067C20.081 36.2703 17.1405 37.0749 20.9789 42.0551C26.5778 39.184 26.5281 38.416 27.6949 33.2127Z" fill="#675541"/>
<path d="M27.0027 33.8806C27.8578 30.0672 25.3858 25.62 25.3858 25.62C25.3858 25.62 23.5383 29.3862 22.6831 33.1996C21.828 37.013 18.5058 38.1743 21.3189 41.8242C25.4223 39.72 26.1476 37.694 27.0027 33.8806Z" fill="#9C7050"/>
<ellipse rx="4.14733" ry="1.70108" transform="matrix(0.290107 -0.956195 -0.95793 -0.289653 24.497 34.0161)" fill="#604747"/>
<path d="M21.7846 33.2126C21.7846 33.2126 25.4531 29.189 25.7489 23.6031C17.7233 25.827 17.5016 27.3128 17.5016 27.3128C13.4596 30.7983 11.0002 29.9425 11.1116 36.2252C17.3219 37.2487 17.7426 36.6981 21.7846 33.2126Z" fill="#675541"/>
<path d="M20.8279 33.2418C23.7902 30.6873 24.4583 25.6452 24.4583 25.6452C24.4583 25.6452 20.727 27.5716 17.7647 30.126C14.8024 32.6805 11.441 31.6376 11.5227 36.2421C16.0741 36.9923 17.8656 35.7962 20.8279 33.2418Z" fill="#9C7050"/>
<ellipse rx="4.14715" ry="1.70115" transform="matrix(0.803613 -0.595533 -0.596561 -0.802285 18.7344 31.8601)" fill="#604747"/>
<path d="M34.6804 29.458C34.6804 29.458 29.2697 28.2977 25.7349 23.9575C33.8744 22.2169 34.1431 22.7534 34.1431 22.7534C39.2473 22.4854 38.1726 21.4126 45.0108 25.5503C40.5961 30.0293 40.0032 29.8979 34.6804 29.458Z" fill="#675541"/>
<path d="M35.3982 28.853C31.4971 28.5307 27.9822 24.8489 27.9822 24.8489C27.9822 24.8489 32.1341 24.2115 36.0351 24.5339C39.9362 24.8562 42.0373 22.0368 44.6881 25.8058C41.4526 29.0884 39.2992 29.1754 35.3982 28.853Z" fill="#9C7050"/>
<ellipse rx="4.14721" ry="1.70113" transform="matrix(-1.00077 -0.00870099 0.00871631 -0.999149 36.2755 26.5048)" fill="#604747"/>
<ellipse cx="26.0842" cy="23.5582" rx="2.14909" ry="1.87728" fill="white"/>
</svg>
