<svg width="35" height="42" viewBox="0 0 35 42" fill="none" xmlns="http://www.w3.org/2000/svg">
<path d="M15.0498 1.50525H17.2426C19.0578 16.2606 19.0415 24.3276 17.2426 38.4148H15.0498C16.9854 23.9116 16.9532 15.8414 15.0498 1.50525Z" fill="#464646"/>
<rect width="1.41945" height="13.3875" transform="matrix(0.641982 0.76672 -0.766558 0.642175 16.8467 7.18347)" fill="#515151"/>
<rect width="1.41951" height="7.30986" transform="matrix(-0.517916 0.855431 -0.855316 -0.518107 12.1016 12.3905)" fill="#616161"/>
<rect width="1.42052" height="7.30938" transform="matrix(-0.0414196 -0.999142 0.999141 -0.0414395 7.30273 23.1007)" fill="#545454"/>
<rect width="1.42047" height="7.3095" transform="matrix(0.114892 -0.993378 0.993372 0.114944 20.7261 16.4016)" fill="#565656"/>
<rect width="1.41943" height="13.3877" transform="matrix(-0.677897 0.735157 -0.734993 -0.678075 27.271 20.5203)" fill="#5A5A5A"/>
<rect width="1.42045" height="13.3866" transform="matrix(-0.195204 0.980763 -0.980743 -0.195304 29.1646 9.08789)" fill="#CD5E5E"/>
<rect width="1.41946" height="13.3876" transform="matrix(-0.636334 -0.771414 0.771258 -0.636522 7.43701 28.8667)" fill="#434343"/>
<rect width="1.41941" height="13.3879" transform="matrix(0.719704 -0.694281 0.694104 0.719875 16.4688 24.4941)" fill="#474747"/>
<ellipse rx="4.61338" ry="4.258" transform="matrix(-0.523948 -0.85175 0.851627 -0.524148 6.19148 7.66637)" fill="#CD5E5E"/>
<path d="M5.46973 2.21545L6.39157 3.81248H4.54788L5.46973 2.21545Z" fill="#871818"/>
<path d="M9.33549 3.53596L9.17734 5.37491L7.6651 4.31804L9.33549 3.53596Z" fill="#9B1717"/>
<path d="M8.36618 5.43809L8.0979 6.30312L7.48311 5.6382L8.36618 5.43809Z" fill="#A61E1E"/>
<path d="M9.15745 6.97693L8.66142 7.7346L8.25339 6.92609L9.15745 6.97693Z" fill="#A61E1E"/>
<path d="M3.02293 3.68367L4.80888 4.14581L3.51579 5.46185L3.02293 3.68367Z" fill="#CD5E5E"/>
<path d="M3.02293 3.68367L4.80888 4.14581L3.51579 5.46185L3.02293 3.68367Z" fill="#C72222"/>
<path d="M4.25493 10.9761L4.58618 9.66457L5.55614 10.6073L4.25493 10.9761Z" fill="#CD5E5E"/>
<path d="M2.31311 6.60932L3.61289 5.93221L3.54925 7.39668L2.31311 6.60932Z" fill="#770D0D"/>
<path d="M1.23555 9.33996L1.94554 8.17406L2.60064 9.37204L1.23555 9.33996Z" fill="#770D0D"/>
<path d="M4.78812 5.58011L5.90983 5.69917L5.24587 6.61123L4.78812 5.58011Z" fill="#770D0D"/>
<path d="M5.49806 7.70962L6.61974 7.82869L5.95581 8.74076L5.49806 7.70962Z" fill="#770D0D"/>
<path d="M8.33692 9.12916L9.45855 9.24823L8.79465 10.1603L8.33692 9.12916Z" fill="#770D0D"/>
<path d="M6.20752 9.83901L7.32916 9.95808L6.66525 10.8702L6.20752 9.83901Z" fill="#770D0D"/>
<path d="M3.5067 10.9537L4.4419 11.5845L3.4281 12.0792L3.5067 10.9537Z" fill="#770D0D"/>
<path d="M3.95047 9.71183L4.62832 8.81003L5.07016 9.8481L3.95047 9.71183Z" fill="#770D0D"/>
<ellipse rx="4.61091" ry="4.2605" transform="matrix(-0.969715 0.243968 -0.244416 -0.969739 17.0616 15.5087)" fill="#CD5E5E"/>
<path d="M11.6469 14.5596L13.4474 14.1601L12.8943 15.9192L11.6469 14.5596Z" fill="#871818"/>
<path d="M14.0661 11.2677L15.7724 11.9717L14.3115 13.0966L14.0661 11.2677Z" fill="#9B1717"/>
<path d="M15.5896 12.7646L16.334 13.2808L15.5158 13.6674L15.5896 12.7646Z" fill="#A61E1E"/>
<path d="M17.2954 12.4705L17.8692 13.1719L16.9761 13.3181L17.2954 12.4705Z" fill="#A61E1E"/>
<path d="M12.3131 17.3353L13.2888 15.7702L14.1564 17.4L12.3131 17.3353Z" fill="#CD5E5E"/>
<path d="M12.3131 17.3353L13.2888 15.7702L14.1564 17.4L12.3131 17.3353Z" fill="#C72222"/>
<path d="M19.6374 18.3497L18.486 17.6391L19.6755 16.9972L19.6374 18.3497Z" fill="#CD5E5E"/>
<path d="M14.8893 18.8909L14.6328 17.4469L16.0119 17.9482L14.8893 18.8909Z" fill="#770D0D"/>
<path d="M17.1711 20.7401L16.2721 19.7116L17.6105 19.447L17.1711 20.7401Z" fill="#770D0D"/>
<path d="M14.6517 16.2204L15.1013 15.1861L15.7723 16.0939L14.6517 16.2204Z" fill="#770D0D"/>
<path d="M16.8958 16.1824L17.3454 15.1481L18.0164 16.0559L16.8958 16.1824Z" fill="#770D0D"/>
<path d="M19.1014 13.9005L19.551 12.8662L20.222 13.7739L19.1014 13.9005Z" fill="#770D0D"/>
<path d="M19.139 16.1447L19.5886 15.1104L20.2595 16.0182L19.139 16.1447Z" fill="#770D0D"/>
<path d="M19.3914 19.0558L20.2729 18.353L20.4408 19.4694L19.3914 19.0558Z" fill="#770D0D"/>
<path d="M18.34 18.2608L17.6835 17.3426L18.8054 17.2331L18.34 18.2608Z" fill="#770D0D"/>
<ellipse rx="4.61451" ry="4.2568" transform="matrix(-0.716484 0.697673 -0.697412 -0.716603 10.3178 27.915)" fill="#CD5E5E"/>
<path d="M5.1578 29.8109L6.51513 28.5618L6.91755 30.3607L5.1578 29.8109Z" fill="#871818"/>
<path d="M5.60082 25.7491L7.42869 25.5011L6.72802 27.208L5.60082 25.7491Z" fill="#9B1717"/>
<path d="M7.6682 26.2796L8.57065 26.352L8.05604 27.0978L7.6682 26.2796Z" fill="#A61E1E"/>
<path d="M8.99639 25.1697L9.84391 25.4878L9.14398 26.0631L8.99639 25.1697Z" fill="#A61E1E"/>
<path d="M7.12477 31.8782L7.18611 30.0336L8.75196 31.0075L7.12477 31.8782Z" fill="#CD5E5E"/>
<path d="M7.12477 31.8782L7.18611 30.0336L8.75196 31.0075L7.12477 31.8782Z" fill="#C72222"/>
<path d="M13.9691 29.0812L12.6174 29.0453L13.3255 27.892L13.9691 29.0812Z" fill="#CD5E5E"/>
<path d="M10.134 31.931L9.18929 30.8104L10.6326 30.5519L10.134 31.931Z" fill="#770D0D"/>
<path d="M13.0334 32.3868L11.7406 31.9494L12.7669 31.0479L13.0334 32.3868Z" fill="#770D0D"/>
<path d="M8.58876 29.7402L8.46029 28.6193L9.49481 29.0675L8.58876 29.7402Z" fill="#770D0D"/>
<path d="M10.5116 28.5821L10.3832 27.4611L11.4176 27.9094L10.5116 28.5821Z" fill="#770D0D"/>
<path d="M11.2758 25.5013L11.1473 24.3803L12.1818 24.8286L11.2758 25.5013Z" fill="#770D0D"/>
<path d="M12.4335 27.4242L12.3051 26.3031L13.3395 26.7514L12.4335 27.4242Z" fill="#770D0D"/>
<path d="M14.1108 29.8161L14.5223 28.7653L15.2261 29.6462L14.1108 29.8161Z" fill="#770D0D"/>
<path d="M12.8029 29.6549L11.7751 29.1909L12.6916 28.5324L12.8029 29.6549Z" fill="#770D0D"/>
<ellipse rx="3.81718" ry="3.51987" transform="matrix(0.197033 0.980468 -0.980437 0.196478 17.9549 24.3422)" fill="#CD5E5E"/>
<path d="M16.9539 28.7776L16.6947 27.2738L18.1268 27.8029L16.9539 28.7776Z" fill="#871818"/>
<path d="M14.3323 26.6459L14.9805 25.2647L15.852 26.5185L14.3323 26.6459Z" fill="#9B1717"/>
<path d="M15.6297 25.448L16.085 24.8538L16.372 25.5462L15.6297 25.448Z" fill="#A61E1E"/>
<path d="M15.4551 24.027L16.0563 23.5813L16.1417 24.3259L15.4551 24.027Z" fill="#A61E1E"/>
<path d="M19.273 28.3402L18.0195 27.4691L19.3987 26.819L19.273 28.3402Z" fill="#CD5E5E"/>
<path d="M19.273 28.3402L18.0195 27.4691L19.3987 26.819L19.273 28.3402Z" fill="#C72222"/>
<path d="M20.4045 22.3291L19.7727 23.2518L19.2895 22.2419L20.4045 22.3291Z" fill="#CD5E5E"/>
<path d="M20.6602 26.2728L19.4568 26.4252L19.9253 25.3071L20.6602 26.2728Z" fill="#770D0D"/>
<path d="M22.2793 24.4627L21.3955 25.164L21.2297 24.0462L22.2793 24.4627Z" fill="#770D0D"/>
<path d="M18.4461 26.3626L17.6098 25.9484L18.3856 25.4313L18.4461 26.3626Z" fill="#770D0D"/>
<path d="M18.5052 24.5073L17.6689 24.0931L18.4447 23.5759L18.5052 24.5073Z" fill="#770D0D"/>
<path d="M16.7093 22.5926L15.873 22.1784L16.6488 21.6613L16.7093 22.5926Z" fill="#770D0D"/>
<path d="M18.5643 22.6517L17.728 22.2375L18.5038 21.7204L18.5643 22.6517Z" fill="#770D0D"/>
<path d="M20.9786 22.5604L20.4335 21.8024L21.3611 21.7094L20.9786 22.5604Z" fill="#770D0D"/>
<path d="M20.2786 23.3974L19.4952 23.9029L19.4491 22.9703L20.2786 23.3974Z" fill="#770D0D"/>
<ellipse rx="3.81719" ry="3.51988" transform="matrix(0.197035 0.980472 -0.980433 0.196476 24.3412 31.44)" fill="#CD5E5E"/>
<path d="M23.3401 35.8754L23.0809 34.3716L24.5131 34.9007L23.3401 35.8754Z" fill="#871818"/>
<path d="M20.7185 33.7438L21.3667 32.3626L22.2383 33.6164L20.7185 33.7438Z" fill="#9B1717"/>
<path d="M22.0159 32.546L22.4713 31.9518L22.7583 32.6442L22.0159 32.546Z" fill="#A61E1E"/>
<path d="M21.8413 31.1247L22.4425 30.6789L22.528 31.4235L21.8413 31.1247Z" fill="#A61E1E"/>
<path d="M25.6591 35.4373L24.4052 34.5661L25.7846 33.9164L25.6591 35.4373Z" fill="#CD5E5E"/>
<path d="M25.6591 35.4373L24.4052 34.5661L25.7846 33.9164L25.6591 35.4373Z" fill="#C72222"/>
<path d="M26.7907 29.427L26.1589 30.3497L25.6757 29.3398L26.7907 29.427Z" fill="#CD5E5E"/>
<path d="M27.0474 33.3705L25.8439 33.523L26.3124 32.4048L27.0474 33.3705Z" fill="#770D0D"/>
<path d="M28.6655 31.5606L27.7816 32.2619L27.6159 31.1441L28.6655 31.5606Z" fill="#770D0D"/>
<path d="M24.8324 33.4604L23.996 33.0462L24.7718 32.529L24.8324 33.4604Z" fill="#770D0D"/>
<path d="M24.8915 31.6052L24.0552 31.191L24.8309 30.6738L24.8915 31.6052Z" fill="#770D0D"/>
<path d="M23.0956 29.6905L22.2592 29.2763L23.035 28.7592L23.0956 29.6905Z" fill="#770D0D"/>
<path d="M24.9505 29.7497L24.1142 29.3355L24.89 28.8184L24.9505 29.7497Z" fill="#770D0D"/>
<path d="M27.3653 29.6582L26.8203 28.9002L27.7479 28.8072L27.3653 29.6582Z" fill="#770D0D"/>
<path d="M26.6648 30.4951L25.8814 31.0006L25.8353 30.068L26.6648 30.4951Z" fill="#770D0D"/>
<ellipse rx="4.20264" ry="3.87591" transform="matrix(-0.559991 0.828602 -0.82843 -0.559938 16.0416 34.3855)" fill="#CD5E5E"/>
<path d="M11.7901 37.0301L12.7699 35.665L13.4615 37.195L11.7901 37.0301Z" fill="#871818"/>
<path d="M11.435 33.3265L13.0189 32.7669L12.7095 34.4187L11.435 33.3265Z" fill="#9B1717"/>
<path d="M13.3768 33.4175L14.1948 33.315L13.8737 34.0752L13.3768 33.4175Z" fill="#A61E1E"/>
<path d="M14.3561 32.1821L15.1707 32.3088L14.6528 32.9512L14.3561 32.1821Z" fill="#A61E1E"/>
<path d="M13.9269 38.5103L13.6409 36.8542L15.2171 37.4327L13.9269 38.5103Z" fill="#CD5E5E"/>
<path d="M13.9269 38.5103L13.6409 36.8542L15.2171 37.4327L13.9269 38.5103Z" fill="#C72222"/>
<path d="M19.5128 34.7501L18.3009 34.9683L18.7193 33.8088L19.5128 34.7501Z" fill="#CD5E5E"/>
<path d="M16.619 38.0007L15.569 37.1765L16.8091 36.6787L16.619 38.0007Z" fill="#770D0D"/>
<path d="M19.29 37.8696L18.0565 37.7188L18.805 36.725L19.29 37.8696Z" fill="#770D0D"/>
<path d="M14.8372 36.3331L14.5156 35.3572L15.5207 35.5654L14.8372 36.3331Z" fill="#770D0D"/>
<path d="M16.3371 34.9447L16.0156 33.9689L17.0207 34.1771L16.3371 34.9447Z" fill="#770D0D"/>
<path d="M16.4494 32.0561L16.1279 31.0803L17.133 31.2884L16.4494 32.0561Z" fill="#770D0D"/>
<path d="M17.8371 33.5563L17.5156 32.5805L18.5208 32.7887L17.8371 33.5563Z" fill="#770D0D"/>
<path d="M19.7751 35.3791L19.948 34.366L20.7384 35.0212L19.7751 35.3791Z" fill="#770D0D"/>
<path d="M18.5788 35.4771L17.5766 35.2537L18.2722 34.4969L18.5788 35.4771Z" fill="#770D0D"/>
<ellipse rx="3.66263" ry="3.38151" transform="matrix(-0.861151 0.508341 -0.508172 -0.861261 7.25546 16.3453)" fill="#CD5E5E"/>
<path d="M2.91838 16.8382L4.19942 16.1297L4.17248 17.5937L2.91838 16.8382Z" fill="#871818"/>
<path d="M4.02293 13.7879L5.48018 13.9405L4.61927 15.1258L4.02293 13.7879Z" fill="#9B1717"/>
<path d="M5.5184 14.5857L6.20111 14.8114L5.66434 15.2899L5.5184 14.5857Z" fill="#A61E1E"/>
<path d="M6.75138 13.9792L7.34552 14.3842L6.69784 14.6964L6.75138 13.9792Z" fill="#A61E1E"/>
<path d="M4.04746 18.8026L4.44036 17.3911L5.46605 18.4373L4.04746 18.8026Z" fill="#CD5E5E"/>
<path d="M4.04746 18.8026L4.44036 17.3911L5.46605 18.4373L4.04746 18.8026Z" fill="#C72222"/>
<path d="M9.85378 17.9313L8.81763 17.649L9.58002 16.8927L9.85378 17.9313Z" fill="#CD5E5E"/>
<path d="M6.35881 19.4096L5.84005 18.3669L7.00221 18.4389L6.35881 19.4096Z" fill="#770D0D"/>
<path d="M8.51094 20.3051L7.59593 19.7242L8.55633 19.2215L8.51094 20.3051Z" fill="#770D0D"/>
<path d="M5.57934 17.4285L5.69022 16.5395L6.40445 17.0801L5.57934 17.4285Z" fill="#770D0D"/>
<path d="M7.27906 16.8961L7.38994 16.0072L8.10414 16.5478L7.27906 16.8961Z" fill="#770D0D"/>
<path d="M8.44752 14.663L8.5584 13.7741L9.2726 14.3147L8.44752 14.663Z" fill="#770D0D"/>
<path d="M8.97973 16.3637L9.09062 15.4747L9.80485 16.0153L8.97973 16.3637Z" fill="#770D0D"/>
<path d="M9.82484 18.5243L10.3392 17.791L10.717 18.6033L9.82484 18.5243Z" fill="#770D0D"/>
<path d="M8.84578 18.1547L8.13994 17.6032L8.9703 17.2675L8.84578 18.1547Z" fill="#770D0D"/>
<ellipse rx="2.21973" ry="2.05089" transform="matrix(-0.999523 0.0276022 -0.0283848 -0.999693 6.2988 22.5432)" fill="#CD5E5E"/>
<path d="M3.85381 21.5314L4.74198 21.5319L4.29831 22.3008L3.85381 21.5314Z" fill="#871818"/>
<path d="M5.33382 20.2366L6.06213 20.7457L5.25813 21.1217L5.33382 20.2366Z" fill="#9B1717"/>
<path d="M5.89505 21.0996L6.1915 21.4204L5.76605 21.5166L5.89505 21.0996Z" fill="#A61E1E"/>
<path d="M6.7261 21.1404L6.92322 21.5308L6.48677 21.5061L6.7261 21.1404Z" fill="#A61E1E"/>
<path d="M3.87793 22.9052L4.49983 22.2719L4.73747 23.1282L3.87793 22.9052Z" fill="#CD5E5E"/>
<path d="M3.87793 22.9052L4.49983 22.2719L4.73747 23.1282L3.87793 22.9052Z" fill="#C72222"/>
<path d="M7.21236 24.1477L6.74487 23.6929L7.37163 23.5154L7.21236 24.1477Z" fill="#CD5E5E"/>
<path d="M4.9256 23.9051L4.95586 23.1998L5.55157 23.5794L4.9256 23.9051Z" fill="#770D0D"/>
<path d="M5.80506 25.0126L5.48945 24.436L6.14678 24.4516L5.80506 25.0126Z" fill="#770D0D"/>
<path d="M5.09178 22.6253L5.41154 22.1858L5.6323 22.6829L5.09178 22.6253Z" fill="#770D0D"/>
<path d="M6.15038 22.8423L6.47012 22.4028L6.69086 22.8999L6.15038 22.8423Z" fill="#770D0D"/>
<path d="M7.42529 22.0001L7.74502 21.5605L7.96577 22.0577L7.42529 22.0001Z" fill="#770D0D"/>
<path d="M7.20848 23.0585L7.52824 22.6189L7.749 23.1161L7.20848 23.0585Z" fill="#770D0D"/>
<path d="M7.0242 24.4526L7.5128 24.2144L7.47512 24.7568L7.0242 24.4526Z" fill="#770D0D"/>
<path d="M6.61321 23.9691L6.40008 23.4687L6.93977 23.5346L6.61321 23.9691Z" fill="#770D0D"/>
<ellipse rx="4.61284" ry="4.25851" transform="matrix(0.842535 -0.538715 0.538466 0.842601 26.9891 6.94538)" fill="#CD5E5E"/>
<path d="M32.425 6.13004L30.8443 7.07937L30.8127 5.23563L32.425 6.13004Z" fill="#871818"/>
<path d="M31.1716 10.0192L29.3307 9.89267L30.3613 8.36208L31.1716 10.0192Z" fill="#9B1717"/>
<path d="M29.2537 9.08181L28.3845 8.82839L29.0386 8.20209L29.2537 9.08181Z" fill="#A61E1E"/>
<path d="M27.7293 9.90084L26.9635 9.41781L27.7647 8.99586L27.7293 9.90084Z" fill="#A61E1E"/>
<path d="M30.9159 3.70844L30.4845 5.50256L29.1468 4.23196L30.9159 3.70844Z" fill="#CD5E5E"/>
<path d="M30.9159 3.70844L30.4845 5.50256L29.1468 4.23196L30.9159 3.70844Z" fill="#C72222"/>
<path d="M23.6477 5.06584L24.9644 5.37454L24.0387 6.3608L23.6477 5.06584Z" fill="#CD5E5E"/>
<path d="M27.9791 3.04869L28.6782 4.33695L27.2132 4.2985L27.9791 3.04869Z" fill="#770D0D"/>
<path d="M25.2313 2.01768L26.409 2.70768L25.2226 3.38346L25.2313 2.01768Z" fill="#770D0D"/>
<path d="M29.0505 5.50661L28.9507 6.63044L28.0276 5.98215L29.0505 5.50661Z" fill="#770D0D"/>
<path d="M26.9333 6.25295L26.8335 7.37678L25.9105 6.72849L26.9333 6.25295Z" fill="#770D0D"/>
<path d="M25.5632 9.11601L25.4634 10.2399L24.5403 9.59154L25.5632 9.11601Z" fill="#770D0D"/>
<path d="M24.8176 6.99928L24.7178 8.12309L23.7947 7.47481L24.8176 6.99928Z" fill="#770D0D"/>
<path d="M23.6568 4.31773L23.0423 5.26381L22.5304 4.25849L23.6568 4.31773Z" fill="#770D0D"/>
<path d="M24.9058 4.73944L25.8188 5.40184L24.7887 5.86159L24.9058 4.73944Z" fill="#770D0D"/>
<ellipse rx="4.90656" ry="4.53156" transform="matrix(0.668407 0.743742 -0.743611 0.668672 26.8098 22.5947)" fill="#CD5E5E"/>
<path d="M28.6059 28.1612L27.3362 26.6668L29.2663 26.3136L28.6059 28.1612Z" fill="#871818"/>
<path d="M24.308 27.5192L24.1227 25.5651L25.9065 26.3813L24.308 27.5192Z" fill="#9B1717"/>
<path d="M24.9591 25.3428L25.075 24.386L25.8452 24.9641L24.9591 25.3428Z" fill="#9F1F1F"/>
<path d="M23.8358 23.8837L24.2105 22.9958L24.7918 23.7636L23.8358 23.8837Z" fill="#9F1F1F"/>
<path d="M30.8865 26.1566L28.9292 26.0152L30.0317 24.39L30.8865 26.1566Z" fill="#CD5E5E"/>
<path d="M30.8865 26.1566L28.9292 26.0152L30.0317 24.39L30.8865 26.1566Z" fill="#C72222"/>
<path d="M28.2035 18.7603L28.1068 20.1964L26.9121 19.3957L28.2035 18.7603Z" fill="#CD5E5E"/>
<path d="M31.0702 22.9595L29.8386 23.9173L29.6256 22.372L31.0702 22.9595Z" fill="#962727"/>
<path d="M31.677 19.8952L31.1562 21.2517L30.2424 20.1234L31.677 19.8952Z" fill="#962727"/>
<path d="M28.6758 24.5095L27.4794 24.5998L28.0003 23.518L28.6758 24.5095Z" fill="#962727"/>
<path d="M27.5259 22.4166L26.3295 22.507L26.8504 21.4251L27.5259 22.4166Z" fill="#962727"/>
<path d="M24.2842 21.4739L23.0877 21.5642L23.6086 20.4823L24.2842 21.4739Z" fill="#962727"/>
<path d="M26.3765 20.324L25.1801 20.4143L25.7009 19.3324L26.3765 20.324Z" fill="#962727"/>
<path d="M28.9897 18.6406L27.8906 18.1597L28.8574 17.4478L28.9897 18.6406Z" fill="#962727"/>
<path d="M28.7641 20.0251L28.2265 21.0986L27.5661 20.0971L28.7641 20.0251Z" fill="#962727"/>
<ellipse rx="2.62066" ry="2.42121" transform="matrix(0.999522 -0.0276001 0.0283868 0.999694 28.5436 15.6477)" fill="#CD5E5E"/>
<path d="M31.4305 16.8423L30.382 16.8418L30.9057 15.934L31.4305 16.8423Z" fill="#871818"/>
<path d="M29.6824 18.3706L28.8225 17.7696L29.7718 17.3256L29.6824 18.3706Z" fill="#9B1717"/>
<path d="M29.0206 17.3518L28.6707 16.9732L29.1729 16.8596L29.0206 17.3518Z" fill="#A61E1E"/>
<path d="M28.0394 17.3044L27.807 16.8443L28.3215 16.8734L28.0394 17.3044Z" fill="#A61E1E"/>
<path d="M31.4022 15.2203L30.6679 15.9681L30.3874 14.957L31.4022 15.2203Z" fill="#CD5E5E"/>
<path d="M31.4022 15.2203L30.6679 15.9681L30.3874 14.957L31.4022 15.2203Z" fill="#C72222"/>
<path d="M27.4653 13.754L28.0166 14.2902L27.2775 14.4996L27.4653 13.754Z" fill="#CD5E5E"/>
<path d="M30.1648 14.0397L30.1291 14.8724L29.4258 14.4243L30.1648 14.0397Z" fill="#770D0D"/>
<path d="M29.1273 12.7324L29.4999 13.4132L28.7238 13.3947L29.1273 12.7324Z" fill="#770D0D"/>
<path d="M29.9673 15.5502L29.5903 16.0684L29.3298 15.4821L29.9673 15.5502Z" fill="#770D0D"/>
<path d="M28.7192 15.2946L28.3422 15.8129L28.0819 15.2265L28.7192 15.2946Z" fill="#770D0D"/>
<path d="M27.2138 16.2886L26.8369 16.8069L26.5765 16.2206L27.2138 16.2886Z" fill="#770D0D"/>
<path d="M27.4697 15.039L27.0927 15.5572L26.8323 14.9709L27.4697 15.039Z" fill="#770D0D"/>
<path d="M27.6877 13.3928L27.1115 13.6735L27.1559 13.0342L27.6877 13.3928Z" fill="#770D0D"/>
<path d="M28.1738 13.9638L28.4253 14.5536L27.7886 14.4759L28.1738 13.9638Z" fill="#770D0D"/>
<ellipse rx="3.00142" ry="2.77241" transform="matrix(0.704895 0.70924 -0.709134 0.705146 19.0867 7.72833)" fill="#CD5E5E"/>
<path d="M20.3532 11.0735L19.531 10.1991L20.7004 9.92382L20.3532 11.0735Z" fill="#871818"/>
<path d="M17.7087 10.8141L17.5358 9.62522L18.6509 10.0691L17.7087 10.8141Z" fill="#9B1717"/>
<path d="M18.04 9.46396L18.0815 8.87519L18.5704 9.20508L18.04 9.46396Z" fill="#A61E1E"/>
<path d="M17.3092 8.60714L17.511 8.05314L17.8896 8.5044L17.3092 8.60714Z" fill="#A61E1E"/>
<path d="M21.6851 9.7798L20.4846 9.75379L21.1087 8.72705L21.6851 9.7798Z" fill="#CD5E5E"/>
<path d="M21.6851 9.7798L20.4846 9.75379L21.1087 8.72705L21.6851 9.7798Z" fill="#C72222"/>
<path d="M19.8199 5.34278L19.8049 6.22322L19.0503 5.77074L19.8199 5.34278Z" fill="#CD5E5E"/>
<path d="M21.6996 7.82056L20.9759 8.44366L20.7984 7.50616L21.6996 7.82056Z" fill="#770D0D"/>
<path d="M21.9767 5.92931L21.7 6.77389L21.1069 6.11277L21.9767 5.92931Z" fill="#770D0D"/>
<path d="M20.2851 8.841L19.5569 8.93301L19.842 8.25591L20.2851 8.841Z" fill="#770D0D"/>
<path d="M19.519 7.59746L18.7908 7.68947L19.0759 7.01239L19.519 7.59746Z" fill="#770D0D"/>
<path d="M17.5092 7.12115L16.781 7.21317L17.0661 6.53606L17.5092 7.12115Z" fill="#770D0D"/>
<path d="M18.7519 6.35427L18.0237 6.44628L18.3088 5.76923L18.7519 6.35427Z" fill="#770D0D"/>
<path d="M20.296 5.24562L19.6095 4.98563L20.1785 4.52109L20.296 5.24562Z" fill="#770D0D"/>
<path d="M20.2014 6.09851L19.9058 6.77091L19.4716 6.17931L20.2014 6.09851Z" fill="#770D0D"/>
</svg>
