<svg width="40" height="44" viewBox="0 0 40 44" fill="none" xmlns="http://www.w3.org/2000/svg">
<path d="M31.322 14.1468C33.9494 23.2891 32.1749 29.4949 28.4824 37.1497C19.9587 37.1485 12.6839 33.4587 6.87136 26.2033C2.97672 18.3414 6.04671 11.744 12.4226 6.70235C20.0549 4.83668 27.4274 6.28489 31.322 14.1468Z" fill="#6B522B"/>
<path d="M34.0505 40.3644C36.2789 38.6161 37.5429 39.0335 33.2665 41.2253C28.9902 43.4171 28.5707 36.0204 27.7318 36.2022L28.5158 35.3413C28.5158 35.3413 31.8221 42.1126 34.0505 40.3644Z" fill="#746451"/>
<path d="M11.6072 8.04977C8.85327 23.2639 12.9513 29.1121 26.2006 36.8664" stroke="#B58F55" stroke-width="0.568491"/>
<path d="M14.1858 9.62435C15.2745 21.4242 28.1888 36.8666 28.1888 36.8666" stroke="#B58F55" stroke-width="0.568491"/>
<path d="M7.69631 11.8773C4.61107 22.12 11.7128 32.6128 21.6552 36.0159" stroke="#B58F55" stroke-width="0.568491"/>
<path d="M15.597 6.71409C26.9952 14.3763 29.9557 21.0015 28.7571 34.8815" stroke="#B58F55" stroke-width="0.568491"/>
<path d="M14.0479 8.70068C24.2118 17.2989 24.4958 22.4035 28.1887 36.583" stroke="#B58F55" stroke-width="0.568491"/>
<path d="M18.1407 6.09157C30.1775 8.22407 33.2717 23.145 30.1775 32.8964" stroke="#B58F55" stroke-width="0.568491"/>
<path d="M14.5151 5.84109C15.0316 6.64601 13.7234 6.91633 12.5654 7.65695C11.4073 8.39756 10.838 9.32801 10.3215 8.5231C9.80495 7.71818 10.325 6.46529 11.4831 5.72467C12.6411 4.98406 13.9986 5.03618 14.5151 5.84109Z" fill="#A07C44"/>
</svg>
