<svg width="41" height="42" viewBox="0 0 41 42" fill="none" xmlns="http://www.w3.org/2000/svg">
<path d="M12.5778 24.1768C10.5792 29.6824 8.45555 33.962 5.14885 32.7559C1.84215 31.5498 3.32185 27.0354 5.3205 21.5298C6.34376 15.3151 9.07993 11.6122 12.3866 12.8183C15.6933 14.0244 16.4862 17.3725 12.5778 24.1768Z" fill="#B84545"/>
<path d="M10.7482 28.508C10.6959 28.7918 10.6416 29.0858 10.5868 29.3892C10.0995 30.7278 9.5166 31.6305 8.92729 32.2773C8.35013 32.9106 7.76424 33.3015 7.24753 33.6171C7.07262 33.5379 6.93264 33.3553 6.83739 33.0672C6.73612 32.7609 6.69052 32.349 6.70352 31.8575C6.72946 30.8768 6.98812 29.598 7.47568 28.2549L7.48974 28.229C8.32034 26.7004 8.93981 25.5604 9.46299 24.8406C9.7265 24.478 9.96033 24.2297 10.1782 24.0915C10.3922 23.9558 10.5868 23.9282 10.7838 24C10.974 24.0693 11.099 24.2341 11.1667 24.5116C11.2349 24.7913 11.2409 25.1719 11.2007 25.6455C11.1367 26.4018 10.9576 27.373 10.7482 28.508Z" fill="#B84545" stroke="#7BC79A" stroke-width="0.165114"/>
<path d="M6.76139 27.0577C6.70906 27.3414 6.65483 27.6355 6.60004 27.9389C6.11147 29.2813 5.48892 30.4271 4.87938 31.1951C4.57382 31.58 4.2745 31.8662 4.00029 32.0358C3.74362 32.1944 3.5201 32.2445 3.33571 32.1939C3.32547 32.1573 3.31527 32.1209 3.30513 32.0847C3.0983 31.3466 2.91591 30.6957 2.88757 29.9255C2.85741 29.1055 3.00203 28.1456 3.48886 26.8045L3.50292 26.7787C4.33352 25.2501 4.95299 24.11 5.47617 23.3902C5.73969 23.0277 5.97352 22.7794 6.19143 22.6412C6.40538 22.5055 6.6 22.4779 6.79701 22.5497C6.9872 22.619 7.11219 22.7837 7.17987 23.0613C7.24806 23.341 7.25405 23.7216 7.21393 24.1952C7.14988 24.9515 6.97075 25.9226 6.76139 27.0577Z" fill="#B84545" stroke="#7BC79A" stroke-width="0.165114"/>
<path d="M3.3735 31.8485L4.70487 28.895L4.00743 30.7324L3.37595 32.1451L3.30887 32.1346L3.3735 31.8485Z" fill="#7BC79A"/>
<path d="M7.31883 33.1735L8.57639 30.366L7.84055 32.1832L7.1991 33.7007L7.31883 33.1735Z" fill="#7BC79A"/>
<path d="M8.42458 29.2074C8.38811 29.4627 8.35032 29.7272 8.31257 30.0005C7.88059 31.1846 7.17713 32.1429 6.51503 32.7803C6.18311 33.0999 5.86351 33.3369 5.59606 33.4813C5.46224 33.5536 5.34365 33.6015 5.24469 33.6256C5.1578 33.6468 5.09227 33.6481 5.04625 33.6372C4.37068 32.7866 3.9826 31.0959 4.83901 28.7338L4.85014 28.7149C5.64332 27.3743 6.23341 26.3768 6.74864 25.7571C7.00762 25.4455 7.24199 25.2367 7.46703 25.1266C7.68815 25.0184 7.90247 25.0043 8.13107 25.0876C8.35385 25.1687 8.50208 25.3349 8.59405 25.5902C8.68729 25.849 8.72084 26.1953 8.71112 26.6244C8.69559 27.3103 8.57075 28.1842 8.42458 29.2074Z" fill="#B84545"/>
<path d="M8.42458 29.2074C8.38811 29.4627 8.35032 29.7272 8.31257 30.0005C7.88059 31.1846 7.17713 32.1429 6.51503 32.7803C6.18311 33.0999 5.86351 33.3369 5.59606 33.4813C5.46224 33.5536 5.34365 33.6015 5.24469 33.6256C5.1578 33.6468 5.09227 33.6481 5.04625 33.6372C4.37068 32.7866 3.9826 31.0959 4.83901 28.7338L4.85014 28.7149C5.64332 27.3743 6.23341 26.3768 6.74864 25.7571C7.00762 25.4455 7.24199 25.2367 7.46703 25.1266C7.68815 25.0184 7.90247 25.0043 8.13107 25.0876C8.35385 25.1687 8.50208 25.3349 8.59405 25.5902C8.68729 25.849 8.72084 26.1953 8.71112 26.6244C8.69559 27.3103 8.57075 28.1842 8.42458 29.2074Z" stroke="#7BC79A" stroke-width="0.165114"/>
<path d="M8.42458 29.2074C8.38811 29.4627 8.35032 29.7272 8.31257 30.0005C7.88059 31.1846 7.17713 32.1429 6.51503 32.7803C6.18311 33.0999 5.86351 33.3369 5.59606 33.4813C5.46224 33.5536 5.34365 33.6015 5.24469 33.6256C5.1578 33.6468 5.09227 33.6481 5.04625 33.6372C4.37068 32.7866 3.9826 31.0959 4.83901 28.7338L4.85014 28.7149C5.64332 27.3743 6.23341 26.3768 6.74864 25.7571C7.00762 25.4455 7.24199 25.2367 7.46703 25.1266C7.68815 25.0184 7.90247 25.0043 8.13107 25.0876C8.35385 25.1687 8.50208 25.3349 8.59405 25.5902C8.68729 25.849 8.72084 26.1953 8.71112 26.6244C8.69559 27.3103 8.57075 28.1842 8.42458 29.2074Z" stroke="#7BC79A" stroke-width="0.165114"/>
<rect width="6.94703" height="4.23972" transform="matrix(0.939634 0.342381 -0.341512 0.939804 5.55615 22.0087)" fill="#B84545"/>
<path d="M5.21762 33.1549L6.51844 30.1479L5.7548 32.0931L5.09007 33.7179L5.21762 33.1549Z" fill="#7BC79A"/>
<path d="M21.6382 25.9072C22.1 32.8531 21.8402 38.5256 17.6744 38.8002C13.5085 39.0749 12.9571 33.4559 12.4952 26.51C10.6357 19.2611 11.836 13.9218 16.0019 13.6471C20.1677 13.3725 22.6286 16.633 21.6382 25.9072Z" fill="#992F2F"/>
<path d="M21.7433 31.4896C21.8222 31.8236 21.9039 32.1696 21.9896 32.5261C22.1009 34.2179 21.8996 35.4815 21.5684 36.4697C21.2429 37.4409 20.7907 38.1499 20.3793 38.7427C20.1431 38.7434 19.8973 38.6086 19.652 38.3363C19.394 38.05 19.1468 37.6221 18.9256 37.0805C18.484 35.9994 18.1531 34.4826 18.0402 32.7865L18.0433 32.749C18.2139 30.6898 18.3413 29.1522 18.5652 28.1176C18.678 27.5964 18.8136 27.2119 18.9857 26.9547C19.1552 26.7013 19.3572 26.5748 19.6109 26.5581C19.8573 26.5418 20.0761 26.665 20.2841 26.9368C20.4934 27.2103 20.6825 27.6233 20.8655 28.1579C21.1578 29.0118 21.4279 30.1549 21.7433 31.4896Z" fill="#992F2F" stroke="#7BC79A" stroke-width="0.165114"/>
<path d="M16.715 31.823C16.7939 32.157 16.8756 32.5029 16.9613 32.8594C17.073 34.5552 16.9451 36.102 16.6501 37.2317C16.5022 37.7977 16.3136 38.2544 16.0956 38.5722C15.8892 38.8733 15.6642 39.0392 15.4311 39.0706C15.4005 39.0333 15.3701 38.9963 15.34 38.9595C14.7629 38.2564 14.2527 37.6347 13.8528 36.809C13.427 35.9293 13.1246 34.8137 13.0119 33.1199L13.015 33.0824C13.1856 31.0231 13.313 29.4856 13.5369 28.451C13.6497 27.9298 13.7853 27.5453 13.9574 27.2881C14.1269 27.0347 14.3289 26.9082 14.5826 26.8914C14.829 26.8751 15.0478 26.9984 15.2558 27.2702C15.4651 27.5437 15.6542 27.9566 15.8372 28.4913C16.1295 29.3452 16.3996 30.4882 16.715 31.823Z" fill="#992F2F" stroke="#7BC79A" stroke-width="0.165114"/>
<path d="M15.3146 38.6587L15.3474 34.8098L15.4691 37.1416L15.4592 38.9799L15.3813 39.0006L15.3146 38.6587Z" fill="#7BC79A"/>
<path d="M20.238 38.2086L20.2595 34.5534L20.3303 36.8819L20.3601 38.8392L20.238 38.2086Z" fill="#7BC79A"/>
<path d="M19.5524 33.3632C19.635 33.6586 19.7205 33.9648 19.8102 34.2803C19.908 35.7785 19.602 37.1611 19.187 38.1741C18.9791 38.6818 18.7449 39.0941 18.5226 39.3808C18.4113 39.5243 18.3046 39.6343 18.2073 39.709C18.1196 39.7764 18.0451 39.811 17.9857 39.8206C16.8381 39.2183 15.6034 37.5589 15.4035 34.5708L15.407 34.5418C15.6268 32.7049 15.7906 31.3362 16.0539 30.4139C16.1864 29.9501 16.3417 29.6081 16.5354 29.378C16.7263 29.1512 16.956 29.031 17.2482 29.0117C17.5342 28.9928 17.7788 29.1049 18.0031 29.341C18.23 29.5798 18.4329 29.9425 18.6278 30.4144C18.9392 31.1687 19.2219 32.1802 19.5524 33.3632Z" fill="#992F2F"/>
<path d="M19.5524 33.3632C19.635 33.6586 19.7205 33.9648 19.8102 34.2803C19.908 35.7785 19.602 37.1611 19.187 38.1741C18.9791 38.6818 18.7449 39.0941 18.5226 39.3808C18.4113 39.5243 18.3046 39.6343 18.2073 39.709C18.1196 39.7764 18.0451 39.811 17.9857 39.8206C16.8381 39.2183 15.6034 37.5589 15.4035 34.5708L15.407 34.5418C15.6268 32.7049 15.7906 31.3362 16.0539 30.4139C16.1864 29.9501 16.3417 29.6081 16.5354 29.378C16.7263 29.1512 16.956 29.031 17.2482 29.0117C17.5342 28.9928 17.7788 29.1049 18.0031 29.341C18.23 29.5798 18.4329 29.9425 18.6278 30.4144C18.9392 31.1687 19.2219 32.1802 19.5524 33.3632Z" stroke="#7BC79A" stroke-width="0.165114"/>
<path d="M19.5524 33.3632C19.635 33.6586 19.7205 33.9648 19.8102 34.2803C19.908 35.7785 19.602 37.1611 19.187 38.1741C18.9791 38.6818 18.7449 39.0941 18.5226 39.3808C18.4113 39.5243 18.3046 39.6343 18.2073 39.709C18.1196 39.7764 18.0451 39.811 17.9857 39.8206C16.8381 39.2183 15.6034 37.5589 15.4035 34.5708L15.407 34.5418C15.6268 32.7049 15.7906 31.3362 16.0539 30.4139C16.1864 29.9501 16.3417 29.6081 16.5354 29.378C16.7263 29.1512 16.956 29.031 17.2482 29.0117C17.5342 28.9928 17.7788 29.1049 18.0031 29.341C18.23 29.5798 18.4329 29.9425 18.6278 30.4144C18.9392 31.1687 19.2219 32.1802 19.5524 33.3632Z" stroke="#7BC79A" stroke-width="0.165114"/>
<rect width="8.24596" height="5.04302" transform="matrix(0.997992 -0.0660344 0.0660998 0.997636 12.9771 26.9142)" fill="#992F2F"/>
<path d="M17.9464 39.1948L17.9188 35.3023L18.0211 37.7831L18.0773 39.868L17.9464 39.1948Z" fill="#7BC79A"/>
<path d="M33.0518 21.5502C34.6852 28.6002 35.3646 34.4649 31.1294 35.4476C26.8942 36.4303 25.39 30.757 23.7566 23.7071C20.6362 16.5813 20.9789 10.9003 25.2142 9.91759C29.4494 8.93485 32.5223 11.8667 33.0518 21.5502Z" fill="#B55454"/>
<path d="M34.0945 27.2629C34.2313 27.5924 34.3731 27.9337 34.5206 28.2852C34.9174 30.0031 34.9213 31.3342 34.7457 32.4046C34.573 33.4573 34.226 34.2618 33.9017 34.9399C33.6572 34.9814 33.3805 34.8838 33.0818 34.6448C32.7684 34.394 32.4427 33.9962 32.1249 33.4774C31.4904 32.4419 30.8972 30.9406 30.4981 29.2187L30.495 29.1792C30.3268 27.0374 30.2012 25.4379 30.2588 24.3383C30.2878 23.7844 30.363 23.3665 30.4972 23.073C30.6295 22.7837 30.8168 22.619 31.076 22.5588C31.3282 22.5002 31.5748 22.5907 31.8344 22.835C32.0955 23.0808 32.3589 23.4732 32.6362 23.9911C33.0792 24.8184 33.5476 25.9461 34.0945 27.2629Z" fill="#B55454" stroke="#7BC79A" stroke-width="0.165114"/>
<path d="M28.989 28.4475C29.1258 28.777 29.2676 29.1184 29.4151 29.4698C29.813 31.1916 29.9396 32.8009 29.8248 34.0103C29.7673 34.6163 29.6496 35.1171 29.4783 35.4804C29.3157 35.8255 29.111 36.0348 28.8743 36.1061C28.8362 36.0725 28.7983 36.0392 28.7607 36.0061C28.0503 35.3817 27.4219 34.8294 26.873 34.0489C26.2882 33.2175 25.7912 32.123 25.3926 30.4033L25.3895 30.3638C25.2213 28.2221 25.0957 26.6226 25.1533 25.523C25.1823 24.969 25.2575 24.5512 25.3917 24.2577C25.524 23.9684 25.7113 23.8037 25.9705 23.7435C26.2227 23.6849 26.4693 23.7754 26.7289 24.0197C26.99 24.2655 27.2534 24.6579 27.5308 25.1758C27.9737 26.0031 28.4421 27.1308 28.989 28.4475Z" fill="#B55454" stroke="#7BC79A" stroke-width="0.165114"/>
<path d="M28.6893 35.7004L28.0796 31.7445L28.5944 34.1174L28.8915 36.0059L28.8149 36.0402L28.6893 35.7004Z" fill="#7BC79A"/>
<path d="M33.6674 34.414L33.0796 30.6585L33.5409 33.0366L33.8981 35.0407L33.6674 34.414Z" fill="#7BC79A"/>
<path d="M32.1591 29.5523C32.2932 29.8417 32.4322 30.1415 32.5771 30.4503C32.9276 31.9719 32.8438 33.4427 32.5863 34.5526C32.4573 35.1087 32.2852 35.5715 32.1044 35.9035C32.0139 36.0695 31.9224 36.2006 31.8347 36.294C31.7552 36.3786 31.6835 36.4272 31.623 36.4471C30.3415 36.0221 28.7946 34.5259 28.0905 31.4915L28.0892 31.4605C28.0087 29.5389 27.9487 28.1066 28.0655 27.1156C28.1242 26.6172 28.2268 26.2396 28.3878 25.9703C28.5466 25.7047 28.7634 25.5421 29.0615 25.4729C29.3535 25.405 29.6246 25.4794 29.8951 25.6844C30.1686 25.8916 30.4378 26.23 30.7168 26.6816C31.1628 27.4034 31.6221 28.394 32.1591 29.5523Z" fill="#B55454"/>
<path d="M32.1591 29.5523C32.2932 29.8417 32.4322 30.1415 32.5771 30.4503C32.9276 31.9719 32.8438 33.4427 32.5863 34.5526C32.4573 35.1087 32.2852 35.5715 32.1044 35.9035C32.0139 36.0695 31.9224 36.2006 31.8347 36.294C31.7552 36.3786 31.6835 36.4272 31.623 36.4471C30.3415 36.0221 28.7946 34.5259 28.0905 31.4915L28.0892 31.4605C28.0087 29.5389 27.9487 28.1066 28.0655 27.1156C28.1242 26.6172 28.2268 26.2396 28.3878 25.9703C28.5466 25.7047 28.7634 25.5421 29.0615 25.4729C29.3535 25.405 29.6246 25.4794 29.8951 25.6844C30.1686 25.8916 30.4378 26.23 30.7168 26.6816C31.1628 27.4034 31.6221 28.394 32.1591 29.5523Z" stroke="#7BC79A" stroke-width="0.165114"/>
<path d="M32.1591 29.5523C32.2932 29.8417 32.4322 30.1415 32.5771 30.4503C32.9276 31.9719 32.8438 33.4427 32.5863 34.5526C32.4573 35.1087 32.2852 35.5715 32.1044 35.9035C32.0139 36.0695 31.9224 36.2006 31.8347 36.294C31.7552 36.3786 31.6835 36.4272 31.623 36.4471C30.3415 36.0221 28.7946 34.5259 28.0905 31.4915L28.0892 31.4605C28.0087 29.5389 27.9487 28.1066 28.0655 27.1156C28.1242 26.6172 28.2268 26.2396 28.3878 25.9703C28.5466 25.7047 28.7634 25.5421 29.0615 25.4729C29.3535 25.405 29.6246 25.4794 29.8951 25.6844C30.1686 25.8916 30.4378 26.23 30.7168 26.6816C31.1628 27.4034 31.6221 28.394 32.1591 29.5523Z" stroke="#7BC79A" stroke-width="0.165114"/>
<rect width="8.58176" height="5.23811" transform="matrix(0.974039 -0.226322 0.22543 0.974273 24.3252 24.0421)" fill="#B55454"/>
<path d="M31.479 35.8104L30.8018 31.8192L31.3204 34.3486L31.7258 36.4794L31.479 35.8104Z" fill="#7BC79A"/>
<path d="M16.6338 8.97217L16.2458 8.48362C12.8158 8.43228 11.6069 9.34159 10.8238 12.7921L11.2118 13.2806C11.9526 9.73695 13.1637 8.82226 16.6338 8.97217Z" fill="#6F1D1D"/>
<path d="M25.5493 11.3746L25.7094 10.7716C22.7544 7.7371 20.7632 7.16675 16.5428 8.33713L16.3827 8.9402C20.6613 7.6825 22.6601 8.25198 25.5493 11.3746Z" fill="#6F1D1D"/>
<path d="M16.2554 8.96265L16.7107 8.53615C15.813 4.39635 14.4268 2.857 10.2279 1.61176L9.77254 2.03826C14.0671 3.24032 15.4602 4.78295 16.2554 8.96265Z" fill="#6F1D1D"/>
<path d="M15.5747 15.7422L15.8655 15.7788C17.2103 13.2729 17.4179 11.7747 16.7305 8.90665L16.4397 8.87003C17.1703 11.7685 16.9634 13.2719 15.5747 15.7422Z" fill="#6F1D1D"/>
</svg>
