<svg width="64" height="69" viewBox="0 0 64 69" fill="none" xmlns="http://www.w3.org/2000/svg">
<path d="M33.5933 27.2277C22.8484 37.0491 18.5689 42.3666 14.7881 57.1537" stroke="#277538" stroke-width="0.734371"/>
<path d="M41.0227 18.9331C37.8175 20.7616 36.8704 21.8865 35.1104 25.3318" stroke="#2F9D08" stroke-width="0.734371"/>
<path d="M31.3877 27.4542C30.8761 26.5066 25.942 25.5987 22.0558 26.4707C20.383 26.8888 18.9352 27.5929 17.7991 28.5409C16.6631 29.4888 15.8624 30.6611 15.4449 31.9873C14.9473 33.6296 15.5077 35.0578 15.356 36.1401C15.3367 36.1703 15.3259 36.3407 15.424 36.3986C15.5221 36.4564 15.9144 36.3039 16.2673 36.1554C16.8496 35.9625 17.486 35.8394 18.1595 35.7895C18.548 35.739 18.8986 35.7093 19.1797 35.6922L19.8223 35.6669C22.0173 35.6147 24.8088 33.9386 24.8088 33.9386C25.9053 33.2203 26.9307 32.444 27.8804 31.6132C27.8804 31.6132 28.5421 31.0779 29.5335 30.1423C30.0211 29.7408 30.4516 29.2989 30.8205 28.8212C31.2953 28.0789 31.5307 27.7108 31.3877 27.4542Z" fill="#2F9D08"/>
<path d="M29.7256 32.6157C28.7699 33.8838 26.9898 36.2339 27.3675 38.1874C27.4555 38.7076 27.5832 39.2315 27.7502 39.7564C27.924 40.1602 28.0674 40.5654 28.1795 40.9698C28.2528 41.2579 28.2957 41.5438 28.3076 41.8249C28.3444 42.4834 28.0197 42.6897 28.2263 42.9132C28.4329 43.1367 28.9681 43.1479 29.2656 43.1727C31.671 43.1752 33.8123 42.577 35.3849 41.4633C36.1272 40.8436 36.6995 40.1078 37.0803 39.2835C37.6542 38.0961 37.9255 36.7863 37.8825 35.4095C37.8933 34.5387 37.7936 33.6471 37.585 32.7463C37.4131 32.0228 37.1432 31.2952 36.7797 30.5755C36.2513 29.5171 35.4111 27.8342 34.3703 27.5581C33.3295 27.282 32.9965 28.274 29.7256 32.6157Z" fill="#2F9D08"/>
<path d="M37.2883 27.622C36.7531 27.9414 37.3645 29.1508 38.5242 31.5534C39.1437 32.8458 39.7632 33.8701 39.7632 33.8701L40.9396 35.8633L41.9657 37.5357C42.2738 38.0313 42.5426 38.3965 42.7016 38.6271C44.0004 40.5793 45.4938 42.4881 47.1657 44.3327C48.5704 45.8348 49.0236 46.0651 49.3109 46.0375C49.5981 46.01 49.6191 45.5556 49.9429 44.3403C50.1107 43.6372 50.1885 43.5348 50.2634 43.226C50.6688 41.2949 50.4139 39.1851 49.5196 37.069C48.8266 35.2142 47.4895 33.4013 45.6601 31.8361C44.8847 31.1366 44.0338 30.4823 43.1215 29.8841C41.5832 28.8975 38.1955 27.0659 37.2883 27.622Z" fill="#2F9D08"/>
<path d="M40.2912 26.5364C40.6163 25.835 43.9895 26.5525 46.1778 27.2672C47.795 27.7993 49.3577 28.5056 50.8093 29.3609C52.2638 30.176 53.6012 31.1285 54.7755 32.1854C56.2215 33.5193 56.4137 34.1271 57.9836 35.1514C58.6831 35.6039 59.2562 35.8869 59.2213 36.0959C59.1628 36.4387 57.3578 36.2264 56.2488 36.0274C55.1399 35.8285 53.2921 35.3353 49.7746 33.5485C46.7199 31.9985 43.9047 30.1193 41.4496 27.9914C40.6619 27.3483 40.1541 26.8474 40.2912 26.5364Z" fill="#2F9D08"/>
<path d="M37.058 24.0598C36.8598 23.4955 38.7685 22.9817 40.55 22.9519C43.0905 22.9137 45.4428 23.8538 45.4507 24.0124C45.4023 24.0796 45.3399 24.1388 45.2651 24.1886C45.2297 24.2296 45.201 24.2746 45.1794 24.3227C45.1794 24.3227 45.0637 24.5035 44.8469 24.6715C44.6188 24.9088 44.3322 25.1071 43.9968 25.2595C43.7453 25.3682 43.4661 25.4471 43.166 25.4942C41.8665 25.6232 40.4323 25.4444 39.0346 24.9791C37.9119 24.6251 37.1843 24.3944 37.058 24.0598Z" fill="#2F9D08"/>
<path d="M31.8499 24.8797C31.6038 25.7665 27.9741 25.1476 20.821 23.956C18.4989 23.492 16.1811 22.8241 13.9186 21.9669C12.7201 21.524 11.4365 20.9826 11.4163 20.6087C11.421 20.5522 11.4441 20.5011 11.4836 20.4595C11.5231 20.4178 11.5779 20.3867 11.6439 20.3687C13.3179 19.6387 15.2835 19.2349 17.4158 19.1829C19.9003 19.1252 22.5378 19.5311 25.1164 20.3681C26.2734 20.7465 27.3946 21.2468 28.4402 21.8512C28.8558 22.0702 32.0867 23.9883 31.8499 24.8797Z" fill="#2F9D08"/>
<path d="M32.2707 19.1094C32.9185 19.7167 33.4951 20.3873 33.9779 21.0951C34.6296 21.9948 35.0099 22.968 35.0568 23.856C35.075 24.0146 35.0247 24.1478 34.9166 24.2267C34.5634 24.4022 33.6438 23.7048 32.8649 23.1008C31.9289 22.4076 31.055 21.6188 30.2708 20.7595C29.5767 19.992 28.9593 19.1769 28.4337 18.3343C27.7346 17.187 26.9529 15.5683 27.2731 15.4402C27.3556 15.3845 27.5583 15.5365 27.9414 15.8051L30.1124 17.3274C30.8587 17.8831 31.5801 18.4788 32.2707 19.1094Z" fill="#2F9D08"/>
<path d="M31.4177 24.5824C23.6051 21.5355 20.154 20.8386 11.8945 20.6749" stroke="#5EC662" stroke-width="0.5"/>
<path d="M40.6875 26.5352C55.7535 31.5012 52.0492 33.7143 58.2632 35.8107" stroke="#5EC662" stroke-width="0.5"/>
<path d="M28.9785 42.6445C32.6299 39.4285 34.8294 39.0128 34.0777 27.718" stroke="#5EC662"/>
<path d="M48.989 45.0866C48.581 37.4559 45.4993 33.8883 37.7621 27.9981" stroke="#5EC662"/>
<path d="M30.929 27.5132C21.4684 29.2404 20.5217 31.0691 15.7999 35.8103" stroke="#5EC662"/>
<path d="M27.5128 15.7947C30.3968 19.1509 32.5666 20.3035 34.8339 24.0943" stroke="#5EC662" stroke-width="0.4"/>
<path d="M45.0827 24.0959C40.7866 24.2982 41.8398 24.6555 37.2738 24.0921" stroke="#5EC662" stroke-width="0.5"/>
<path fill-rule="evenodd" clip-rule="evenodd" d="M49.9931 6.31135C50.2371 6.30548 50.4798 6.34973 50.7061 6.44136C51.022 6.55708 51.3137 6.73058 51.5664 6.95302C51.9178 7.21221 52.2118 7.54145 52.4299 7.92002C52.6481 8.29859 52.7857 8.7183 52.8341 9.15274C52.8557 9.36051 52.8362 9.5705 52.7767 9.7707C52.7172 9.9709 52.6189 10.1574 52.4874 10.3194C52.2622 10.5274 51.9736 10.6532 51.6682 10.6767C51.3566 10.7061 51.043 10.6477 50.7626 10.5083C50.0711 10.2015 49.4901 9.68943 49.0984 9.04124C48.8635 8.67076 48.3285 7.73494 48.7268 7.01176C48.8546 6.7799 49.0502 6.59277 49.2872 6.47549C49.5089 6.37308 49.7491 6.31722 49.9931 6.31135ZM50.2469 12.0225C50.4478 12.098 50.625 12.2257 50.7603 12.3925C51.315 13.0558 51.3295 15.5127 50.4386 15.7605C50.2152 15.8053 49.9833 15.7773 49.7769 15.6804C49.443 15.5382 49.1639 15.2917 48.981 14.9779C48.7618 14.6175 48.6462 14.2036 48.6471 13.7819C48.648 13.3601 48.7653 12.947 48.986 12.588C49.1718 12.2954 49.4549 12.078 49.7855 11.9742C49.9409 11.9515 50.0995 11.9681 50.2469 12.0225ZM44.7817 8.05969C44.5879 8.04543 44.3933 8.07193 44.2104 8.13748C44.0585 8.23052 43.9277 8.3544 43.8266 8.50115C43.7254 8.64789 43.656 8.81426 43.623 8.98953C43.5109 9.37204 43.5136 9.77926 43.6308 10.1605C43.7438 10.7304 44.0164 11.2564 44.4167 11.6773C44.6976 11.9659 45.4475 12.7311 46.2914 12.4904C46.5711 12.3956 46.8202 12.2276 47.0129 12.0037C47.2056 11.7798 47.3349 11.5082 47.3872 11.2172C47.4208 10.8869 47.3845 10.5531 47.2806 10.2376C47.1767 9.92207 47.0075 9.63197 46.7841 9.3862C46.4342 8.85624 45.9278 8.44866 45.3358 8.2203C45.1643 8.12866 44.9755 8.07395 44.7817 8.05969ZM44.243 14.1798C43.5617 14.3271 42.6027 14.8924 42.6465 15.5246C42.687 16.0855 43.495 16.4268 43.7821 16.5482L43.7877 16.5505C44.4538 16.8233 45.7975 17.0821 46.3871 16.2834C46.5237 16.0865 46.6088 15.8583 46.6345 15.6198C46.6602 15.3813 46.6258 15.14 46.5344 14.9182C46.1519 14.1099 44.9244 14.0325 44.243 14.1798ZM48.8758 19.1019C48.792 18.7989 48.8171 18.4759 48.9468 18.189C49.089 17.926 49.3041 17.7096 49.5662 17.5658C49.8619 17.3555 50.1918 17.198 50.5411 17.1003C50.897 16.9447 51.286 16.8802 51.6727 16.9128C51.9061 16.918 52.131 17.0004 52.3122 17.1473C52.4809 17.2866 52.5972 17.4791 52.6421 17.6934C52.6768 17.8985 52.6694 18.1087 52.6205 18.3111C52.5716 18.5135 52.4822 18.704 52.3576 18.871C52.0352 19.367 51.5582 19.743 51.0006 19.9405C50.7693 20.0516 50.5165 20.1107 50.2601 20.1135C50.0038 20.1164 49.75 20.0629 49.5168 19.9569C49.2019 19.7641 48.9726 19.4583 48.8758 19.1019ZM39.5987 8.93997C40.4065 8.67205 41.2904 9.4535 41.548 9.68121L41.561 9.69273C42.1015 10.2051 42.4678 10.8743 42.608 11.6059C42.7209 11.9856 42.7264 12.389 42.6238 12.7714C42.5602 13.0462 42.4075 13.2921 42.1896 13.4708C41.6529 13.8408 40.8967 13.544 40.598 13.4268L40.5656 13.4141C40.1047 13.2049 39.7044 12.8817 39.4026 12.475C39.1116 12.1711 38.8873 11.8097 38.7443 11.4139C38.6013 11.0181 38.5426 10.5969 38.5721 10.1772C38.6171 9.90328 38.7335 9.64616 38.9096 9.43182C39.0857 9.21748 39.3151 9.0535 39.5749 8.95644L39.5987 8.93997ZM39.6526 5.63247C39.9431 5.06952 40.7383 5.00377 41.2645 4.98852C41.8922 4.87568 42.5394 5.01136 43.0695 5.36689C43.3635 5.57887 43.5672 5.89369 43.6398 6.24872C43.6596 6.47699 43.6269 6.70669 43.5441 6.92022C43.4613 7.13375 43.3307 7.32542 43.1623 7.48053C42.8889 7.69612 42.5667 7.84124 42.224 7.90317C41.8812 7.96511 41.5284 7.94196 41.1965 7.83576C40.7884 7.74992 40.4142 7.54612 40.1206 7.24964C39.827 6.95317 39.6268 6.57707 39.5449 6.16805C39.5286 5.98282 39.566 5.79688 39.6526 5.63247ZM39.5334 16.0144C39.4876 16.1785 39.3943 16.3253 39.2652 16.4362C39.134 16.5388 38.9817 16.6112 38.8193 16.6481C38.657 16.6849 38.4884 16.6854 38.3257 16.6495C37.2275 16.4672 36.0641 15.3959 36.1868 14.4053C36.2222 14.0825 36.3825 13.7867 36.6334 13.5813C36.804 13.463 37.0001 13.3869 37.2058 13.3591C37.4114 13.3313 37.6207 13.3527 37.8166 13.4215C38.115 13.5388 38.3695 13.7466 38.5444 14.0157C38.6328 14.137 38.7093 14.2665 38.773 14.4024C38.8513 14.6181 38.9417 14.8292 39.0437 15.0346C39.1489 15.193 39.2453 15.2545 39.3276 15.307C39.4072 15.3579 39.4738 15.4004 39.5226 15.5143C39.5755 15.6763 39.5793 15.8503 39.5334 16.0144ZM55.0812 12.9494C54.9447 12.6943 54.7242 12.4945 54.4571 12.384C53.7906 12.1472 53.1661 12.8972 53.1024 12.9797C52.9092 13.2609 52.7767 13.5793 52.7132 13.9147C52.6497 14.2501 52.6567 14.5952 52.7337 14.9279C52.7846 15.3193 52.9372 15.6906 53.1762 16.0047C53.3075 16.1954 53.4947 16.3405 53.712 16.4198C53.8429 16.4498 53.9786 16.4522 54.1104 16.4268C54.2423 16.4013 54.3674 16.3487 54.4777 16.2722C54.6971 16.0929 54.8763 15.8694 55.0037 15.6162C55.1311 15.363 55.204 15.0857 55.2175 14.8024C55.4147 14.1908 55.3658 13.526 55.0812 12.9494ZM43.9598 17.8795C43.6271 17.9363 43.3276 18.0519 43.0809 18.2188C42.7788 18.468 42.6015 18.8022 42.5736 19.1754C42.5456 19.5485 42.6683 19.9423 42.9248 20.3025C43.195 20.6142 43.5501 20.8799 43.9557 21.0738C44.3613 21.2677 44.8035 21.3832 45.2396 21.4092C45.8556 21.4329 46.4136 21.2672 46.8002 20.9459C47.0905 20.683 47.2508 20.3373 47.2589 19.9567C47.267 19.5761 47.1225 19.1795 46.8455 18.8221C46.6209 18.5795 46.3397 18.37 46.0223 18.2086C45.7049 18.0473 45.3593 17.9382 45.0107 17.8894C44.6506 17.8261 44.2924 17.8227 43.9598 17.8795ZM44.9843 4.74485C45.3205 4.55077 45.702 4.44903 46.0902 4.44993C46.4785 4.45082 46.8598 4.5543 47.1955 4.74992C47.3774 4.85392 47.5336 4.9976 47.6525 5.17028C47.7713 5.34296 47.8499 5.5402 47.8822 5.74734C47.8947 6.04758 47.7962 6.34176 47.6054 6.57355C47.4686 6.72282 47.2998 6.83919 47.1117 6.91396C46.8095 7.0071 46.4912 7.03632 46.177 6.99978C45.8627 6.96324 45.5595 6.86174 45.2863 6.70171C44.9203 6.55022 44.6188 6.27516 44.4341 5.92436C44.3419 5.74616 44.3131 5.54187 44.3525 5.34523C44.41 5.20644 44.4959 5.08131 44.6047 4.9779C44.7136 4.87449 44.8429 4.79509 44.9843 4.74485ZM35.1232 9.19914C34.9113 9.69023 34.884 10.2417 35.0462 10.7517C35.0813 10.9277 35.1547 11.0938 35.2611 11.2383C35.3676 11.3827 35.5046 11.5018 35.6622 11.5872C35.7853 11.6211 35.9139 11.6302 36.0404 11.614C36.167 11.5978 36.2891 11.5567 36.3997 11.493C36.6521 11.3705 36.8754 11.11 37.3889 10.1154C37.9025 9.12071 37.9202 8.94704 37.8941 8.75267C37.8622 8.55824 37.7807 8.37533 37.6574 8.22167C37.5342 8.06802 37.3734 7.94885 37.1907 7.87574C37.0206 7.83703 36.8445 7.83283 36.6729 7.86339C36.5012 7.89395 36.3375 7.95864 36.1913 8.05366C35.7176 8.30553 35.3417 8.70868 35.1232 9.19914Z" fill="#F00000"/>
</svg>
