<svg width="42" height="53" viewBox="0 0 42 53" fill="none" xmlns="http://www.w3.org/2000/svg">
<path d="M29.0235 48.3849C29.0235 48.3849 31.5497 59.6671 29.7592 45.4331C27.9687 31.1991 30.5367 3.78068 30.3961 2.42454C30.2556 1.0684 29.3823 7.11713 29.3823 7.11713C29.3823 7.11713 27.8531 19.1336 27.9005 27.8946C27.9413 35.4296 29.0235 48.3849 29.0235 48.3849Z" fill="#814500"/>
<path d="M29.4293 38.8745L28.2741 38.8745" stroke="#5EC662" stroke-width="0.975292"/>
<path d="M29.4289 27.7958L27.6967 27.7957" stroke="#5EC662" stroke-width="0.975292"/>
<path d="M29.4287 16.8229L28.2733 16.8229" stroke="#5EC662" stroke-width="0.975292"/>
<line y1="-0.487646" x2="4.2279" y2="-0.487646" transform="matrix(-0.999951 0.00992134 0.00991032 0.999951 31.7852 12.1996)" stroke="#5EC662" stroke-width="0.975292"/>
<path d="M29.4289 23.3447L27.6969 23.3447" stroke="#5EC662" stroke-width="0.975292"/>
<path d="M29.4287 32.4159L27.6967 32.6212" stroke="#5EC662" stroke-width="0.975292"/>
<path d="M38.1282 41.5803C37.9515 42.0684 35.6458 42.9333 33.7138 42.8738C32.879 42.8282 32.1315 42.629 31.5161 42.2881C30.9006 41.9472 30.4299 41.4716 30.1323 40.8899C29.773 40.1678 29.938 39.451 29.7859 38.9594C29.7744 38.947 29.7568 38.8684 29.7997 38.8327C29.8427 38.7969 30.0424 38.833 30.2229 38.8708C30.517 38.9087 30.8319 38.9093 31.1593 38.8724C31.3498 38.8612 31.5205 38.8437 31.6569 38.8266L31.9677 38.7809C33.0268 38.609 34.4913 39.1418 34.4913 39.1418C35.0709 39.3791 35.6207 39.6497 36.138 39.9526C36.138 39.9526 36.4952 40.1433 37.0402 40.4913C37.304 40.6352 37.5432 40.8029 37.7556 40.9929C38.0381 41.297 38.1782 41.4477 38.1282 41.5803Z" fill="#238700"/>
<path d="M37.8701 41.4003C33.383 41.5057 31.9582 40.4424 29.5006 38.7076" stroke="#5EC662" stroke-width="0.667534"/>
<path d="M41.8237 17.5041C42.0953 18.1504 40.3777 21.277 38.1886 23.1407C37.2238 23.9268 36.2084 24.478 35.2032 24.7613C34.1981 25.0445 33.224 25.054 32.3393 24.7891C31.2524 24.4501 30.7492 23.5949 30.1114 23.2721C30.0869 23.2716 29.9923 23.2134 30.0054 23.1362C30.0186 23.059 30.2736 22.8952 30.5089 22.7521C30.8697 22.4964 31.2178 22.1837 31.5439 21.8226C31.7434 21.6225 31.9151 21.4358 32.0492 21.2837L32.3486 20.9306C33.353 19.7118 35.4786 18.7693 35.4786 18.7693C36.3452 18.4217 37.2106 18.136 38.071 17.9137C38.071 17.9137 38.6477 17.7423 39.5819 17.536C40.0105 17.4124 40.4349 17.3362 40.8509 17.3083C41.4533 17.3206 41.7521 17.3267 41.8237 17.5041Z" fill="#238700"/>
<path d="M41.4287 17.5579C36.5508 22.1326 33.9485 22.5306 29.5553 23.3124" stroke="#5EC662" stroke-width="0.667534"/>
<path d="M38.3593 6.86794C38.8043 7.16972 38.3882 9.16654 37.1528 10.5631C36.5967 11.1595 35.9195 11.6378 35.1621 11.9691C34.4046 12.3004 33.5824 12.478 32.7448 12.4913C31.7113 12.5002 31.0008 12.1263 30.3531 12.0645C30.3322 12.0686 30.2326 12.0538 30.2182 12.0097C30.2037 11.9656 30.3652 11.8318 30.5171 11.7126C30.7378 11.5103 30.9288 11.2794 31.085 11.0261C31.1875 10.8825 31.271 10.751 31.3341 10.6449L31.4704 10.4008C31.9162 9.56306 33.4039 8.67639 33.4039 8.67639C34.0226 8.33477 34.6609 8.02689 35.316 7.75414C35.316 7.75414 35.7476 7.55927 36.4706 7.28215C36.7926 7.13934 37.1269 7.02295 37.4701 6.93419C37.9846 6.83414 38.2397 6.78453 38.3593 6.86794Z" fill="#238700"/>
<path d="M37.9399 7.03149C35.3718 10.3446 33.3214 11.0072 29.8966 12.1853" stroke="#5EC662" stroke-width="0.667534"/>
<path d="M35.8997 0.761523C36.1503 0.963957 35.7145 2.45158 34.8213 3.53367C34.422 3.99704 33.9578 4.37878 33.4565 4.65598C32.9552 4.93317 32.4272 5.10011 31.9041 5.14678C31.2593 5.19893 30.8496 4.95516 30.4515 4.93824C30.4381 4.94216 30.3774 4.93567 30.3723 4.90384C30.3672 4.87201 30.4797 4.76642 30.5848 4.67207C30.7402 4.51344 30.8797 4.33513 30.9994 4.1419C31.076 4.03166 31.1396 3.93127 31.1883 3.85039L31.2948 3.66475C31.6467 3.0287 32.6521 2.31069 32.6521 2.31069C33.0678 2.03205 33.4927 1.77736 33.925 1.54778C33.925 1.54778 34.2112 1.38536 34.6862 1.14958C34.8995 1.0303 35.1181 0.929921 35.3397 0.849476C35.6692 0.753177 35.8325 0.705419 35.8997 0.761523Z" fill="#238700"/>
<path d="M35.4351 1.04004C33.6236 3.53479 32.3289 4.08425 30.1609 5.05389" stroke="#5EC662" stroke-width="0.667534"/>
<path d="M28.201 36.1847C27.998 36.82 25.0161 37.4586 22.4703 36.9035C21.3691 36.6361 20.3734 36.1764 19.543 35.5521C18.7126 34.9277 18.0646 34.1516 17.6378 33.2702C17.1215 32.1787 17.2954 31.2227 17.0656 30.5022C17.0497 30.4822 17.0218 30.3686 17.0761 30.3294C17.1305 30.2902 17.3955 30.3892 17.6353 30.4858C18.0245 30.6105 18.439 30.6883 18.8676 30.717C19.1175 30.748 19.3411 30.7655 19.5196 30.775L19.9258 30.7875C21.309 30.8074 23.2683 31.906 23.2683 31.906C24.0453 32.3776 24.785 32.8882 25.484 33.4356C25.484 33.4356 25.9656 33.7881 26.7037 34.4051C27.0595 34.6695 27.3844 34.9612 27.6753 35.2772C28.0653 35.7689 28.2588 36.0127 28.201 36.1847Z" fill="#238700"/>
<path d="M28.4385 36.1898C22.719 35.335 20.8689 33.557 17.6808 30.6266" stroke="#5EC662" stroke-width="0.667534"/>
<path d="M17.8028 4.61283C17.402 5.03702 18.6418 7.88401 20.6028 9.88651C21.4733 10.742 22.4392 11.4308 23.4423 11.9114C24.4454 12.3921 25.4651 12.6547 26.4403 12.6836C27.6407 12.7087 28.3218 12.1851 29.0486 12.1049C29.0744 12.1109 29.184 12.0911 29.184 12.0284C29.1841 11.9658 28.9461 11.7734 28.725 11.602C28.3926 11.3114 28.0837 10.9805 27.8067 10.6182C27.6334 10.4125 27.4868 10.2244 27.3735 10.0726L27.123 9.72348C26.2886 8.52587 24.2289 7.24609 24.2289 7.24609C23.3826 6.75246 22.5264 6.30662 21.6641 5.91057C21.6641 5.91057 21.0903 5.62806 20.1477 5.22498C19.7205 5.01787 19.2891 4.84822 18.858 4.71777C18.2241 4.56922 17.9097 4.49554 17.8028 4.61283Z" fill="#238700"/>
<path d="M18.1865 4.7439C22.4805 9.52964 24.7249 10.2563 29.1913 12.0076" stroke="#5EC662" stroke-width="0.667534"/>
<path d="M26.1827 1.0313C25.9111 1.12726 25.8141 2.65738 26.2243 3.97912C26.4139 4.5512 26.6829 5.07149 27.0153 5.50878C27.3476 5.94607 27.7363 6.29134 28.1582 6.52388C28.6799 6.80556 29.097 6.7291 29.4344 6.85773C29.4443 6.86619 29.497 6.8822 29.5111 6.8547C29.5252 6.82719 29.4641 6.68903 29.4056 6.56391C29.325 6.36129 29.2639 6.14629 29.2238 5.92467C29.1941 5.79524 29.1721 5.67958 29.1565 5.58735L29.1251 5.37753C29.0285 4.66333 28.4121 3.6368 28.4121 3.6368C28.1516 3.22917 27.876 2.84029 27.5864 2.47191C27.5864 2.47191 27.398 2.21843 27.0748 1.82886C26.9338 1.64156 26.7826 1.46978 26.6226 1.31528C26.3776 1.10711 26.2561 1.00387 26.1827 1.0313Z" fill="#238700"/>
<path d="M26.4331 1.36853C27.1911 4.35348 27.9925 5.14322 29.5177 6.84726" stroke="#5EC662" stroke-width="0.667534"/>
<path d="M28.0007 22.9245C27.4609 23.5273 23.6957 23.323 21.0078 22.0019C19.8583 21.402 18.9232 20.6326 18.2587 19.7397C17.5943 18.8469 17.2141 17.8491 17.141 16.8061C17.0646 15.518 17.7241 14.5725 17.8026 13.7546C17.7937 13.7292 17.8157 13.6027 17.8975 13.5776C17.9793 13.5526 18.2394 13.7331 18.4714 13.9037C18.8632 14.1472 19.3068 14.3491 19.7903 14.5041C20.0654 14.6094 20.3165 14.6928 20.519 14.7547L20.9843 14.8863C22.5795 15.3105 24.3266 17.0269 24.3266 17.0269C25.0023 17.7449 25.616 18.4928 26.1648 19.2671C26.1648 19.2671 26.5548 19.7749 27.1157 20.6332C27.4018 21.0125 27.6392 21.4113 27.8253 21.8254C28.0424 22.4516 28.1501 22.7621 28.0007 22.9245Z" fill="#238700"/>
<path d="M28.2744 22.9988C22.0364 20.4286 20.7354 18.0306 18.43 14.0375" stroke="#5EC662" stroke-width="0.667534"/>
<path d="M21.785 48.2283C21.785 48.2283 24.015 57.0283 20.2231 46.4213C16.4313 35.8143 4.91188 17.5166 4.52958 16.5166C4.14727 15.5167 6.90345 19.4445 6.90345 19.4445C6.90345 19.4445 12.2348 27.3205 15.3075 33.475C17.9503 38.7683 21.785 48.2283 21.785 48.2283Z" fill="#814500"/>
<path d="M17.7694 41.0125L18.657 40.6693" stroke="#5EC662" stroke-width="0.975293"/>
<path d="M14.3438 33.8639L15.5467 33.4399" stroke="#5EC662" stroke-width="0.975293"/>
<path d="M10.3756 26.6413L11.1442 25.9687" stroke="#5EC662" stroke-width="0.975293"/>
<path d="M8.06603 22.5987L8.67616 22.0043" stroke="#5EC662" stroke-width="0.975293"/>
<path d="M12.6479 31.183L13.8542 30.7086" stroke="#5EC662" stroke-width="0.975293"/>
<path d="M16.0938 37.3604L16.5914 37.1793L17.0891 36.9983" stroke="#5EC662" stroke-width="0.975293"/>
<path d="M5.22129 39.4091C5.32595 40.0358 7.90893 41.4835 10.2467 41.7375C11.2612 41.823 12.2047 41.7059 13.0206 41.3931C13.8365 41.0804 14.508 40.5785 14.9948 39.9175C15.5868 39.0954 15.5467 38.191 15.8384 37.6156C15.855 37.6024 15.8936 37.5093 15.8498 37.4583C15.8061 37.4073 15.5578 37.4176 15.3322 37.4333C14.97 37.43 14.5909 37.3774 14.2051 37.2769C13.9785 37.231 13.7769 37.1807 13.6166 37.1367L13.2527 37.0283C12.0165 36.6389 10.1365 37.0426 10.1365 37.0426C9.38658 37.2347 8.66529 37.4727 7.97589 37.7555C7.97589 37.7555 7.50385 37.9282 6.77113 38.2616C6.42195 38.3929 6.09697 38.5575 5.79952 38.7539C5.39238 39.0779 5.19046 39.2386 5.22129 39.4091Z" fill="#238700"/>
<path d="M5.56934 39.2332C10.946 40.1211 12.8959 39.0618 16.2372 37.356" stroke="#5EC662" stroke-width="0.667534"/>
<path d="M12.9942 46.6913C13.291 46.9706 15.213 46.7587 16.5454 46.0317C17.114 45.7037 17.5671 45.299 17.8774 44.8419C18.1877 44.3847 18.3488 43.8846 18.3511 43.3715C18.3468 42.7382 17.9771 42.2946 17.9094 41.8962C17.9131 41.8835 17.8975 41.8222 17.8548 41.8123C17.812 41.8025 17.6849 41.8986 17.5718 41.9891C17.3793 42.12 17.1588 42.2321 16.9164 42.3224C16.779 42.3821 16.6532 42.4305 16.5515 42.4668L16.3176 42.5451C15.5147 42.8003 14.6776 43.693 14.6776 43.693C14.3557 44.0648 14.0665 44.4494 13.8114 44.8451C13.8114 44.8451 13.6288 45.1054 13.3704 45.5426C13.2366 45.7369 13.1284 45.9393 13.047 46.1477C12.9569 46.4609 12.9122 46.6162 12.9942 46.6913Z" fill="#238700"/>
<path d="M13.1191 46.4066C16.3388 44.9391 16.9297 43.6887 17.9879 41.6029" stroke="#5EC662" stroke-width="0.667534"/>
<path d="M1.87052 31.1346C1.90933 31.6837 4.22108 33.2649 6.41542 33.7941C7.37004 34.0026 8.27684 34.0286 9.08144 33.8705C9.88603 33.7124 10.5718 33.3735 11.0977 32.8741C11.7389 32.2511 11.7883 31.4735 12.1207 31.0212C12.1377 31.0121 12.1833 30.9377 12.1467 30.8884C12.1101 30.839 11.8734 30.8146 11.6579 30.7979C11.3144 30.7467 10.9597 30.6511 10.6033 30.5138C10.3925 30.4443 10.2061 30.3745 10.0582 30.3154L9.72329 30.1743C8.58754 29.6767 6.76422 29.7703 6.76422 29.7703C6.03391 29.8342 5.32633 29.941 4.64469 30.0904C4.64469 30.0904 4.17999 30.1749 3.45234 30.3618C3.10825 30.4272 2.78391 30.5244 2.48261 30.6524C2.06489 30.8746 1.85773 30.9849 1.87052 31.1346Z" fill="#238700"/>
<path d="M2.29541 31.0277C7.27917 32.5053 9.21539 31.8618 12.523 30.8524" stroke="#5EC662" stroke-width="0.667534"/>
<path d="M0.52629 22.4547C0.321588 22.8238 1.32125 24.0752 2.68199 24.6156C3.28315 24.8362 3.92713 24.9312 4.5753 24.8947C5.22346 24.8583 5.86246 24.6912 6.45395 24.4035C7.18116 24.0433 7.54636 23.5294 7.97823 23.2565C7.99433 23.2519 8.0588 23.2062 8.0533 23.1702C8.0478 23.1342 7.88715 23.0977 7.73853 23.0681C7.51214 23.0046 7.29643 22.9105 7.09718 22.7885C6.97441 22.7242 6.86932 22.6617 6.7875 22.6097L6.60545 22.487C5.99598 22.0582 4.63929 21.9646 4.63929 21.9646C4.08471 21.9446 3.52833 21.9552 2.97265 21.9964C2.97265 21.9964 2.60117 22.0129 1.9964 22.0751C1.72013 22.0893 1.44466 22.1263 1.17279 22.1858C0.776865 22.2981 0.58051 22.3538 0.52629 22.4547Z" fill="#238700"/>
<path d="M0.856934 22.4183C3.83964 23.8298 5.51573 23.5668 8.34071 23.1775" stroke="#5EC662" stroke-width="0.667534"/>
<path d="M0.0842323 17.3046C-0.0195091 17.5353 0.813418 18.4228 1.82295 18.8641C2.26701 19.0471 2.7276 19.15 3.17708 19.1664C3.62656 19.1828 4.05567 19.1125 4.43866 18.9597C4.90885 18.7676 5.1094 18.4516 5.38232 18.2986C5.39309 18.2966 5.43331 18.2705 5.42561 18.2464C5.41792 18.2223 5.30165 18.1882 5.19452 18.1594C5.02939 18.1034 4.86846 18.0279 4.71606 17.935C4.62331 17.8849 4.54312 17.8372 4.48034 17.7978L4.33989 17.7055C3.86778 17.3847 2.9088 17.2382 2.9088 17.2382C2.51876 17.1904 2.13072 17.1627 1.74644 17.1552C1.74644 17.1552 1.48837 17.1429 1.07199 17.1461C0.880259 17.1382 0.691523 17.1454 0.507716 17.1677C0.242776 17.217 0.111383 17.2415 0.0842323 17.3046Z" fill="#238700"/>
<path d="M0.564941 17.3428C2.69413 18.4418 3.78448 18.3641 5.62763 18.2686" stroke="#5EC662" stroke-width="0.667534"/>
<path d="M18.0366 39.3897C18.4041 39.7627 20.7195 39.1524 22.3063 37.8605C22.983 37.2826 23.5175 36.6074 23.878 35.8755C24.2384 35.1435 24.4172 34.37 24.4037 33.6011C24.3785 32.6533 23.9177 32.0453 23.8233 31.459C23.8273 31.4393 23.8066 31.3499 23.7546 31.3417C23.7027 31.3335 23.5521 31.4968 23.4183 31.6496C23.1899 31.875 22.9271 32.0765 22.637 32.2486C22.4729 32.359 22.3224 32.4506 22.2008 32.5205L21.9207 32.6734C20.9587 33.1779 19.9755 34.6425 19.9755 34.6425C19.5983 35.2485 19.2611 35.8686 18.9655 36.5C18.9655 36.5 18.7531 36.9177 18.4547 37.6118C18.2992 37.9233 18.1749 38.2429 18.0832 38.5674C17.9843 39.0502 17.9352 39.2896 18.0366 39.3897Z" fill="#238700"/>
<path d="M17.8711 39.4774C21.5964 36.819 22.2729 34.9017 23.4856 31.6919" stroke="#5EC662" stroke-width="0.667534"/>
<path d="M14.1272 13.5831C14.5584 13.7381 14.6991 16.1724 14.0352 18.2708C13.7287 19.179 13.2962 20.0041 12.7639 20.6966C12.2315 21.3891 11.6102 21.9348 10.9373 22.3009C10.1052 22.7443 9.44242 22.6191 8.90483 22.8207C8.88892 22.834 8.80506 22.859 8.78284 22.8152C8.76061 22.7713 8.8591 22.5521 8.95322 22.3536C9.08308 22.0321 9.18217 21.6907 9.24782 21.3386C9.29628 21.1331 9.33229 20.9493 9.35785 20.8028L9.4096 20.4693C9.56959 19.3344 10.5588 17.7072 10.5588 17.7072C10.9767 17.0612 11.4185 16.4452 11.8822 15.8619C11.8822 15.8619 12.184 15.4604 12.7015 14.8437C12.9273 14.5471 13.1694 14.2752 13.4252 14.0309C13.8166 13.702 14.0107 13.5389 14.1272 13.5831Z" fill="#238700"/>
<path d="M13.8467 13.9113C12.5612 18.7428 11.2574 20.0296 8.77125 22.8033" stroke="#5EC662" stroke-width="0.667534"/>
<path d="M6.98758 14.046C7.21198 14.0169 7.8226 15.0548 8.004 16.1264C8.07403 16.5946 8.07003 17.0546 7.99226 17.4789C7.91448 17.9032 7.76453 18.283 7.55139 18.5955C7.28574 18.9779 6.96629 19.0723 6.77553 19.2821C6.77156 19.2915 6.74034 19.3214 6.72069 19.3071C6.70104 19.2929 6.6949 19.1744 6.69151 19.0659C6.67608 18.8954 6.64265 18.7231 6.59212 18.5536C6.56706 18.4523 6.54146 18.3635 6.51965 18.2933L6.46722 18.1351C6.28164 17.6004 6.34947 16.6625 6.34947 16.6625C6.38743 16.2844 6.44265 15.9142 6.51489 15.5534C6.51489 15.5534 6.55702 15.3089 6.64533 14.9213C6.6777 14.74 6.72277 14.566 6.78008 14.401C6.87791 14.1683 6.92643 14.0528 6.98758 14.046Z" fill="#238700"/>
<path d="M6.91162 14.5127C7.42821 17.0575 7.18662 17.4133 6.71265 19.3042" stroke="#5EC662" stroke-width="0.667534"/>
<path d="M13.4751 30.029C14.0669 30.2598 16.6323 28.7811 18.047 26.9022C18.6397 26.0742 19.022 25.2035 19.171 24.3423C19.3199 23.4811 19.2325 22.6472 18.914 21.8906C18.5109 20.9612 17.7136 20.5327 17.3687 19.9875C17.3659 19.9666 17.3056 19.8857 17.2394 19.8972C17.1732 19.9087 17.055 20.1274 16.953 20.3292C16.7648 20.6388 16.5256 20.9376 16.2418 21.2177C16.0864 21.389 15.9401 21.5365 15.8202 21.6517L15.5409 21.9089C14.5737 22.7719 13.9582 24.594 13.9582 24.594C13.7394 25.3367 13.5746 26.0784 13.4647 26.8155C13.4647 26.8155 13.3715 27.3096 13.2828 28.1099C13.2168 28.4771 13.1919 28.8406 13.2083 29.1967C13.2782 29.7124 13.3129 29.9682 13.4751 30.029Z" fill="#238700"/>
<path d="M13.3096 30.1779C16.7718 26.159 16.8337 24.0146 17.0342 20.3945" stroke="#5EC662" stroke-width="0.667534"/>
</svg>
