<svg width="65" height="70" viewBox="0 0 65 70" fill="none" xmlns="http://www.w3.org/2000/svg">
<path d="M45.02 21.5907L44.1131 21.0738C32.4276 34.2375 27.5119 42.7307 21.8673 60.1241L22.7743 60.641C28.354 43.0258 33.2821 34.5011 45.02 21.5907Z" fill="#C4C4C4"/>
<path d="M22.021 41.2686L21.6738 41.4478C21.8154 44.6908 22.563 46.1941 25.2002 48.2798L25.5473 48.1006C22.8423 46.0189 22.0905 44.5113 22.021 41.2686Z" fill="#C4C4C4"/>
<path d="M32.855 29.2284L32.6171 29.3512C32.6808 31.509 33.1742 32.5024 34.9466 33.8646L35.1845 33.7418C33.3659 32.3829 32.8697 31.3867 32.855 29.2284Z" fill="#C4C4C4"/>
<path d="M30.3711 47.3322L30.3939 47.7225C28.3281 49.2083 27.1073 49.3048 24.7961 48.0497L24.7733 47.6593C27.1082 48.9754 28.3332 48.8804 30.3711 47.3322Z" fill="#C4C4C4"/>
<path d="M39.6533 34.5607L39.6761 34.9511C37.6104 36.4369 36.3895 36.5334 34.0783 35.2782L34.0555 34.8878C36.3904 36.204 37.6155 36.109 39.6533 34.5607Z" fill="#C4C4C4"/>
<path d="M47.0293 24.0283C45.5027 23.786 44.717 23.536 43.4731 22.8375" stroke="#7330E2" stroke-width="0.44118"/>
<path d="M44.1924 18.3054C43.5211 20.1252 43.3445 21.1204 43.4734 22.8373" stroke="#7330E2" stroke-width="0.44118"/>
<path d="M42.731 20.4498C42.682 21.4427 42.6331 22.4356 43.5313 22.9313" stroke="#7330E2" stroke-width="0.298048"/>
<path d="M47.011 20.7737C46.067 20.9612 45.2606 21.6532 45.2099 22.3193C45.1592 22.9854 45.8834 23.3734 46.8274 23.1859C47.7714 22.9984 48.2676 22.1278 48.6284 21.6404C48.1622 20.9609 47.955 20.5863 47.011 20.7737Z" fill="#7330E2"/>
<path d="M48.6328 21.5814C47.2683 22.2355 46.518 22.4032 45.2145 22.2597" stroke="#868AB7" stroke-width="0.343645"/>
<path d="M48.4203 20.3559C47.6465 20.9039 46.8252 21.0475 46.5857 20.6767C46.3463 20.306 46.7794 19.5612 47.5531 19.0133C48.3269 18.4653 48.9665 18.6483 49.3877 18.6925C49.2384 19.4341 49.194 19.808 48.4203 20.3559Z" fill="#747AB6"/>
<path d="M46.7621 19.9384C46.3192 20.7214 45.4976 21.2288 44.9269 21.0717C44.3562 20.9146 44.2525 20.1524 44.6953 19.3694C45.1381 18.5864 46.0146 18.4092 46.5305 18.2362C46.9555 18.8573 47.2049 19.1554 46.7621 19.9384Z" fill="#BCC0E7"/>
<path d="M46.5811 18.2505C45.6213 19.266 45.2536 19.8827 44.9774 21.0862" stroke="#868AB7" stroke-width="0.313738"/>
<path d="M48.4214 19.1383C47.3579 20.2401 44.8084 22.4421 43.4031 22.9124" stroke="#868AB7" stroke-width="0.343645"/>
<path d="M45.0645 21.0824C45.0645 21.0824 44.9372 21.8629 43.4744 22.8373" stroke="#7330E2" stroke-width="0.298048"/>
<path d="M45.5975 24.2747C44.6525 24.4871 43.3263 27.9389 44.355 28.0196C45.3837 28.1002 44.9129 25.808 45.8578 25.5956C47.6863 25.7018 45.1391 29.0081 48.9884 26.4726C49.7992 25.3149 46.5424 24.0623 45.5975 24.2747Z" fill="#7330E2"/>
<path d="M45.2461 24.8022C44.3934 24.3852 43.3672 23.8685 43.4748 22.836" stroke="#7330E2" stroke-width="0.298048"/>
<path d="M45.236 26.0989C44.9093 26.6862 44.5646 27.2861 44.7777 27.3427C44.9907 27.3992 45.4283 26.9689 45.7551 26.3816C46.0818 25.7942 46.174 25.2723 45.9609 25.2157C45.7479 25.1592 45.5628 25.5116 45.236 26.0989Z" fill="#C4C4C4"/>
<path d="M46.7522 23.6538C46.072 24.2013 46.7419 26.7557 47.6431 26.3362C48.5443 25.9168 46.97 24.8317 47.6502 24.2842C49.2329 23.5176 48.8076 26.5415 50.718 23.3654C50.7992 22.3432 47.4324 23.1064 46.7522 23.6538Z" fill="#7330E2"/>
<path d="M47.3893 24.851C47.4188 25.3313 47.4398 25.8268 47.6471 25.7625C47.8543 25.6982 47.9984 25.2567 47.9689 24.7764C47.9394 24.2961 47.7475 23.9589 47.5403 24.0232C47.333 24.0875 47.3598 24.3707 47.3893 24.851Z" fill="#C4C4C4"/>
<path d="M42.8108 21.6058C42.3943 22.3236 39.3665 22.4892 39.5783 21.6246C39.7902 20.7599 41.4404 21.7576 41.8569 21.0398C42.2623 19.5128 39.0216 20.718 42.0124 18.2398C43.1255 17.8842 43.2273 20.888 42.8108 21.6058Z" fill="#7330E2"/>
<path d="M41.3001 21.4147C40.7581 21.5257 40.2015 21.648 40.2146 21.4584C40.2276 21.2688 40.6776 21.0251 41.2197 20.9141C41.7617 20.803 42.1906 20.8667 42.1775 21.0563C42.1645 21.2459 41.8422 21.3036 41.3001 21.4147Z" fill="#C4C4C4"/>
<path d="M47.5693 20.3926C46.8983 20.1851 47.6345 17.2764 48.5309 17.2435C49.4273 17.2106 47.8171 19.0974 48.4881 19.3049C50.0617 19.2773 49.7074 16.449 51.5522 18.6807C51.609 19.6683 48.2404 20.6001 47.5693 20.3926Z" fill="#7330E2"/>
<path d="M48.2418 18.8657C48.2832 18.3677 48.3165 17.8586 48.5232 17.8187C48.7299 17.7788 48.864 18.1502 48.8225 18.6483C48.7811 19.1464 48.58 19.5825 48.3732 19.6224C48.1665 19.6623 48.2004 19.3638 48.2418 18.8657Z" fill="#C4C4C4"/>
<path d="M43.8186 19.0219C44.1237 19.4378 46.5465 18.4087 46.4116 17.7965C46.2768 17.1843 44.9121 18.6178 44.607 18.2019C44.3438 17.1328 46.8952 16.8558 44.5961 16.016C43.7174 16.158 43.5136 18.6061 43.8186 19.0219Z" fill="#7330E2"/>
<path d="M45.0395 18.2899C45.4699 18.171 45.9115 18.0556 45.9088 17.9084C45.9061 17.7613 45.5549 17.7385 45.1245 17.8574C44.6941 17.9763 44.3474 18.192 44.3502 18.3391C44.3529 18.4863 44.6091 18.4089 45.0395 18.2899Z" fill="#C4C4C4"/>
<path d="M41.2598 38.5173C40.4218 37.2689 40.0511 36.5176 39.6111 35.0653" stroke="#7330E2" stroke-width="0.44118"/>
<path d="M42.2593 31.6239C40.9558 32.7475 40.3625 33.4917 39.6113 35.0711" stroke="#7330E2" stroke-width="0.44118"/>
<path d="M40.3003 32.4922C39.7878 33.3203 39.2753 34.1483 39.5975 35.1884" stroke="#7330E2" stroke-width="0.298048"/>
<path d="M42.8267 35.6812C42.1435 35.202 41.3022 35.2538 40.9475 35.7969C40.5928 36.34 40.8591 37.1688 41.5423 37.648C42.2255 38.1272 42.9588 37.7097 43.4215 37.5324C43.4583 36.6262 43.5098 36.1605 42.8267 35.6812Z" fill="#7330E2"/>
<path d="M43.4526 37.4827C42.2793 37.1227 41.7272 36.7582 40.979 35.7478" stroke="#868AB7" stroke-width="0.343645"/>
<path d="M43.9171 36.2766C43.1655 36.2258 42.5801 35.7922 42.6097 35.3081C42.6392 34.8239 43.2726 34.4726 44.0242 34.5233C44.7759 34.5741 45.0887 35.1674 45.3317 35.4919C44.8781 36.0334 44.6688 36.3274 43.9171 36.2766Z" fill="#747AB6"/>
<path d="M43.0786 34.7875C42.4211 35.1655 41.6594 35.0468 41.3775 34.5223C41.0955 33.9979 41.4 33.2663 42.0575 32.8883C42.715 32.5103 43.3509 32.9527 43.7586 33.1535C43.7241 33.9813 43.7361 34.4095 43.0786 34.7875Z" fill="#BCC0E7"/>
<path d="M43.7847 33.2001C42.6891 33.4282 42.159 33.7134 41.4016 34.5703" stroke="#868AB7" stroke-width="0.313738"/>
<path d="M44.5073 35.222C43.3051 35.4544 40.6361 35.6309 39.5257 35.0844" stroke="#868AB7" stroke-width="0.343645"/>
<path d="M41.4565 34.627C41.4565 34.627 40.998 35.2168 39.6069 35.0676" stroke="#7330E2" stroke-width="0.298048"/>
<path d="M40.2411 37.7553C39.5451 37.2971 37.0373 39.3914 37.6436 40.1608C38.25 40.9303 39.0672 38.6206 39.7632 39.0788C40.859 40.4143 37.6557 41.552 41.3018 41.9687C42.3726 41.5152 40.9371 38.2135 40.2411 37.7553Z" fill="#7330E2"/>
<path d="M39.7637 37.9781C39.431 37.0366 39.0379 35.8907 39.607 35.0677" stroke="#7330E2" stroke-width="0.298048"/>
<path d="M39.1275 39.0954C38.6373 39.383 38.1298 39.6693 38.236 39.8632C38.3423 40.0572 38.8258 39.9812 39.316 39.6937C39.8062 39.4061 40.1175 39.0158 40.0113 38.8219C39.905 38.6279 39.6178 38.8079 39.1275 39.0954Z" fill="#C4C4C4"/>
<path d="M41.2676 38.0036C40.5748 38.0165 39.754 40.6876 40.5232 40.9358C41.2923 41.1841 40.8319 39.1734 41.5247 39.1605C42.8899 39.5705 41.1539 41.905 43.8956 40.4473C44.4431 39.6156 41.9603 37.9907 41.2676 38.0036Z" fill="#7330E2"/>
<path d="M41.0861 39.4761C40.8713 39.9129 40.6438 40.3572 40.8049 40.4421C40.9661 40.527 41.2708 40.2418 41.4856 39.8049C41.7004 39.3681 41.7439 38.9452 41.5828 38.8603C41.4217 38.7753 41.3009 39.0393 41.0861 39.4761Z" fill="#C4C4C4"/>
<path d="M39.7891 33.5512C39.1792 33.891 37.1996 31.9775 37.7525 31.3712C38.3055 30.7649 38.8558 32.7518 39.4658 32.412C40.4618 31.3626 37.8437 30.2064 40.9235 30.0883C41.7944 30.5361 40.3991 33.2114 39.7891 33.5512Z" fill="#7330E2"/>
<path d="M38.9336 32.3584C38.5396 32.0863 38.1309 31.8143 38.2312 31.6586C38.3315 31.5028 38.7323 31.5971 39.1263 31.8692C39.5204 32.1412 39.7585 32.4879 39.6582 32.6436C39.5579 32.7994 39.3277 32.6304 38.9336 32.3584Z" fill="#C4C4C4"/>
<path d="M43.3659 35.73C43.0457 35.0941 44.9203 33.0711 45.4987 33.6517C46.0771 34.2323 44.1504 34.7749 44.4707 35.4108C45.4714 36.4561 46.6228 33.7619 46.6964 36.9513C46.2524 37.8466 43.6862 36.366 43.3659 35.73Z" fill="#7330E2"/>
<path d="M44.5289 34.8614C44.7967 34.4574 45.0647 34.0382 45.2139 34.1442C45.3631 34.2502 45.267 34.6637 44.9991 35.0678C44.7313 35.4719 44.3932 35.7135 44.244 35.6075C44.0948 35.5015 44.261 35.2655 44.5289 34.8614Z" fill="#C4C4C4"/>
<path d="M41.6772 31.9934C41.6665 32.5617 43.6861 33.3148 43.899 32.6917C44.1119 32.0685 42.5594 32.3856 42.5702 31.8173C42.9246 30.7102 44.6594 32.2036 43.6255 29.912C43.0054 29.4381 41.688 31.425 41.6772 31.9934Z" fill="#7330E2"/>
<path d="M42.8 32.1862C43.1278 32.3754 43.4608 32.5752 43.5307 32.4455C43.6005 32.3159 43.3914 32.0574 43.0637 31.8682C42.7359 31.679 42.4136 31.6307 42.3438 31.7604C42.2739 31.8901 42.4723 31.997 42.8 32.1862Z" fill="#C4C4C4"/>
<path d="M36.1646 28.1669C34.9399 28.9121 34.2049 29.2387 32.7887 29.6181" stroke="#7330E2" stroke-width="0.44118"/>
<path d="M29.4849 27.1532C30.5553 28.3574 31.2682 28.9093 32.7885 29.6183" stroke="#7330E2" stroke-width="0.44118"/>
<path d="M30.2979 28.9454C31.094 29.4243 31.8902 29.9031 32.9056 29.6251" stroke="#7330E2" stroke-width="0.298048"/>
<path d="M33.431 26.6998C32.9555 27.3132 32.9939 28.0791 33.5168 28.4106C34.0397 28.742 34.849 28.5135 35.3246 27.9001C35.8001 27.2867 35.4046 26.6129 35.2388 26.1893C34.3584 26.1409 33.9065 26.0864 33.431 26.6998Z" fill="#7330E2"/>
<path d="M35.1919 26.1584C34.8252 27.2198 34.4629 27.7159 33.4698 28.3799" stroke="#868AB7" stroke-width="0.343645"/>
<path d="M34.0297 25.7192C33.9696 26.4011 33.5394 26.9257 33.0689 26.8909C32.5984 26.8561 32.2657 26.2751 32.3258 25.5932C32.3859 24.9113 32.9674 24.6369 33.2865 24.4215C33.8068 24.8423 34.0897 25.0373 34.0297 25.7192Z" fill="#747AB6"/>
<path d="M32.5686 26.4582C32.9262 27.0622 32.8002 27.7528 32.287 28.0005C31.7738 28.2483 31.0678 27.9595 30.7101 27.3555C30.3524 26.7515 30.791 26.1805 30.9917 25.8132C31.795 25.8581 32.2109 25.8542 32.5686 26.4582Z" fill="#BCC0E7"/>
<path d="M31.0381 25.7917C31.2439 26.7906 31.5128 27.2768 32.3327 27.9788" stroke="#868AB7" stroke-width="0.313738"/>
<path d="M33.0093 25.1658C33.2185 26.2621 33.3523 28.6903 32.8036 29.6904" stroke="#868AB7" stroke-width="0.343645"/>
<path d="M32.3867 27.9283C32.3867 27.9283 32.9548 28.3547 32.7897 29.6163" stroke="#7330E2" stroke-width="0.298048"/>
<path d="M35.41 29.0803C34.9546 29.7058 36.9505 32.0182 37.7068 31.4791C38.4631 30.9399 36.2326 30.1609 36.688 29.5354C38.0013 28.5603 39.0578 31.4898 39.5173 28.182C39.093 27.2016 35.8654 28.4548 35.41 29.0803Z" fill="#7330E2"/>
<path d="M35.6172 29.5182C34.6975 29.8057 33.5783 30.145 32.7875 29.6153" stroke="#7330E2" stroke-width="0.298048"/>
<path d="M36.6926 30.1141C36.9644 30.5642 37.2347 31.0299 37.4246 30.9364C37.6145 30.8428 37.5481 30.4022 37.2763 29.9522C37.0045 29.5021 36.6302 29.2132 36.4403 29.3067C36.2504 29.4003 36.4208 29.6641 36.6926 30.1141Z" fill="#C4C4C4"/>
<path d="M35.6655 28.1543C35.6671 28.7839 38.2496 29.5698 38.5029 28.8748C38.7563 28.1797 36.7952 28.5677 36.7936 27.9381C37.2135 26.7039 39.4545 28.3163 38.0812 25.8035C37.2818 25.2935 35.6638 27.5248 35.6655 28.1543Z" fill="#7330E2"/>
<path d="M37.0939 28.34C37.5147 28.5418 37.9425 28.7552 38.0276 28.6099C38.1127 28.4647 37.8405 28.1833 37.4197 27.9816C36.9989 27.7798 36.5887 27.734 36.5037 27.8792C36.4186 28.0245 36.673 28.1382 37.0939 28.34Z" fill="#C4C4C4"/>
<path d="M31.3172 29.4276C31.6377 29.9871 29.7483 31.7572 29.1681 31.2455C28.5879 30.7339 30.5262 30.2638 30.2058 29.7043C29.2021 28.7832 28.0382 31.1451 27.9717 28.3444C28.4203 27.5597 30.9968 28.8682 31.3172 29.4276Z" fill="#7330E2"/>
<path d="M30.1466 30.1865C29.8763 30.5404 29.6058 30.9076 29.4561 30.814C29.3063 30.7204 29.404 30.3577 29.6743 30.0037C29.9445 29.6498 30.285 29.4388 30.4347 29.5324C30.5845 29.6259 30.4168 29.8326 30.1466 30.1865Z" fill="#C4C4C4"/>
<path d="M33.4884 26.2127C32.8658 26.494 30.9304 24.7598 31.5032 24.243C32.0761 23.7262 32.573 25.4853 33.1956 25.2039C34.2263 24.3104 31.6278 23.2232 34.7263 23.2048C35.5889 23.6219 34.1111 25.9314 33.4884 26.2127Z" fill="#7330E2"/>
<path d="M32.6636 25.1421C32.2752 24.8925 31.8722 24.6424 31.9774 24.5086C32.0826 24.3747 32.4827 24.4685 32.8711 24.7182C33.2594 24.9678 33.4889 25.2787 33.3838 25.4126C33.2786 25.5464 33.0519 25.3918 32.6636 25.1421Z" fill="#C4C4C4"/>
<path d="M29.8353 27.6876C30.387 27.7059 31.1502 25.8811 30.5485 25.6782C29.9468 25.4753 30.2302 26.8914 29.6785 26.8732C28.6092 26.5344 30.0867 24.9796 27.8452 25.8852C27.3753 26.4419 29.2836 27.6693 29.8353 27.6876Z" fill="#7330E2"/>
<path d="M30.0398 26.671C30.2287 26.376 30.428 26.0763 30.3034 26.011C30.1787 25.9456 29.9245 26.1318 29.7356 26.4269C29.5467 26.7219 29.4946 27.014 29.6193 27.0794C29.744 27.1447 29.8509 26.9661 30.0398 26.671Z" fill="#C4C4C4"/>
<path d="M26.0654 38.1588C24.6777 39.8175 23.7908 40.6257 21.9697 41.7946" stroke="#7330E2" stroke-width="0.44118"/>
<path d="M16.2168 39.3124C18.2625 40.7478 19.5129 41.3141 21.9698 41.7931" stroke="#7330E2" stroke-width="0.44118"/>
<path d="M18.166 41.772C19.5 42.1898 20.834 42.6076 22.1365 41.7614" stroke="#7330E2" stroke-width="0.298048"/>
<path d="M21.5653 36.9904C21.1728 38.1393 21.5705 39.3153 22.4536 39.617C23.3368 39.9186 24.3709 39.2318 24.7634 38.0828C25.1559 36.9339 24.2981 36.0475 23.8751 35.4562C22.617 35.7413 21.9578 35.8414 21.5653 36.9904Z" fill="#7330E2"/>
<path d="M23.7959 35.4298C23.7572 37.2311 23.4711 38.1513 22.3743 39.5909" stroke="#868AB7" stroke-width="0.343645"/>
<path d="M21.9597 35.2216C22.1814 36.3075 21.8132 37.2999 21.1373 37.4383C20.4614 37.5767 19.7336 36.8086 19.5119 35.7227C19.2901 34.6369 19.9831 33.9718 20.3342 33.5061C21.2533 33.9482 21.7379 34.1358 21.9597 35.2216Z" fill="#747AB6"/>
<path d="M20.2395 36.9695C21.0131 37.7625 21.1458 38.8883 20.5358 39.4839C19.9258 40.0795 18.8042 39.9194 18.0306 39.1264C17.257 38.3333 17.6172 37.2656 17.7343 36.612C18.8832 36.3528 19.4659 36.1764 20.2395 36.9695Z" fill="#BCC0E7"/>
<path d="M17.79 36.5587C18.5277 38.0287 19.124 38.675 20.592 39.4313" stroke="#868AB7" stroke-width="0.313738"/>
<path d="M20.2847 34.7761C21.0705 36.397 22.3485 40.1221 22.0279 41.9032" stroke="#868AB7" stroke-width="0.343645"/>
<path d="M20.6479 39.332C20.6479 39.332 21.6362 39.7633 21.9708 41.7945" stroke="#7330E2" stroke-width="0.298048"/>
<path d="M25.4173 39.8907C25.0581 41.0507 28.9021 43.8324 29.723 42.6836C30.5439 41.5348 27.0589 41.2357 27.4181 40.0756C28.8259 38.0202 31.6269 42.1471 30.7869 36.8107C29.7503 35.4585 25.7764 38.7306 25.4173 39.8907Z" fill="#7330E2"/>
<path d="M25.9043 40.4852C24.7411 41.3085 23.3208 42.2939 21.9717 41.7937" stroke="#7330E2" stroke-width="0.298048"/>
<path d="M27.6824 40.9727C28.2665 41.5614 28.8555 42.1752 29.0806 41.9518C29.3057 41.7284 29.0147 41.0699 28.4306 40.4812C27.8465 39.8924 27.1906 39.5963 26.9654 39.8197C26.7403 40.0432 27.0983 40.3839 27.6824 40.9727Z" fill="#C4C4C4"/>
<path d="M25.3571 38.3422C25.6425 39.3213 29.6267 39.4877 29.6704 38.3024C29.7141 37.1171 27.1314 38.5232 26.846 37.5442C26.8815 35.4516 30.7572 37.0439 27.6967 33.6952C26.3434 33.2287 25.0718 37.3631 25.3571 38.3422Z" fill="#7330E2"/>
<path d="M27.4484 38.0495C28.1308 38.1914 28.8283 38.3486 28.8827 38.0876C28.937 37.8266 28.4278 37.5 27.7454 37.3581C27.063 37.2162 26.4657 37.3128 26.4114 37.5738C26.3571 37.8348 26.766 37.9077 27.4484 38.0495Z" fill="#C4C4C4"/>
<path d="M19.8163 42.1019C20.5182 42.8413 18.6568 46.3699 17.6112 45.8112C16.5656 45.2524 19.0797 43.727 18.3778 42.9876C16.5528 41.9651 15.9774 46.1175 14.6257 41.786C14.9039 40.3812 19.1144 41.3624 19.8163 42.1019Z" fill="#7330E2"/>
<path d="M18.5117 43.7625C18.2908 44.4238 18.0754 45.1058 17.8232 45.0217C17.571 44.9375 17.5456 44.3331 17.7665 43.6719C17.9874 43.0106 18.371 42.5427 18.6232 42.6269C18.8754 42.7111 18.7326 43.1012 18.5117 43.7625Z" fill="#C4C4C4"/>
<path d="M21.4237 36.2104C20.6747 36.9032 17.1747 34.9969 17.7479 33.9581C18.321 32.9192 19.8099 35.4532 20.5589 34.7604C21.6065 32.9479 17.4648 32.32 21.8127 31.0226C23.2128 31.3185 22.1726 35.5177 21.4237 36.2104Z" fill="#7330E2"/>
<path d="M19.7832 34.8833C19.1252 34.6539 18.4464 34.4298 18.5343 34.178C18.6222 33.9262 19.2268 33.908 19.8848 34.1375C20.5428 34.3669 21.0049 34.757 20.917 35.0088C20.8291 35.2606 20.4411 35.1127 19.7832 34.8833Z" fill="#C4C4C4"/>
<path d="M16.9485 39.9999C17.7324 39.8028 17.9852 36.6532 17.048 36.5837C16.1109 36.5143 17.1458 38.6005 16.3619 38.7977C14.7061 38.7081 16.0846 35.6863 13.3402 38.011C12.9297 39.0688 16.1646 40.1971 16.9485 39.9999Z" fill="#7330E2"/>
<path d="M16.7805 38.336C16.9135 37.7997 17.059 37.2518 16.8543 37.2012C16.6497 37.1505 16.3761 37.5442 16.2431 38.0806C16.1102 38.617 16.1683 39.0928 16.3729 39.1435C16.5775 39.1941 16.6476 38.8724 16.7805 38.336Z" fill="#C4C4C4"/>
<path d="M32.6992 53.2249C31.503 51.2862 30.979 50.123 30.3717 47.8819" stroke="#7330E2" stroke-width="0.44118"/>
<path d="M34.3467 42.6664C32.4051 44.357 31.5154 45.484 30.3721 47.8891" stroke="#7330E2" stroke-width="0.44118"/>
<path d="M31.4507 43.9473C30.6776 45.2046 29.9046 46.462 30.3501 48.0669" stroke="#7330E2" stroke-width="0.298048"/>
<path d="M35.0733 48.9113C34.0839 48.1576 32.8484 48.215 32.3139 49.0395C31.7794 49.864 32.1482 51.1434 33.1376 51.8971C34.1271 52.6508 35.2138 52.029 35.897 51.7689C35.9749 50.3786 36.0628 49.665 35.0733 48.9113Z" fill="#7330E2"/>
<path d="M35.9443 51.694C34.2324 51.1108 33.4321 50.5369 32.361 48.9665" stroke="#868AB7" stroke-width="0.343645"/>
<path d="M36.6572 49.8512C35.5564 49.7535 34.7095 49.073 34.7656 48.331C34.8217 47.5891 35.7596 47.0668 36.8604 47.1644C37.9611 47.2621 38.4042 48.1804 38.752 48.6845C38.0727 49.5033 37.758 49.9488 36.6572 49.8512Z" fill="#747AB6"/>
<path d="M35.4662 47.5441C34.4921 48.107 33.3784 47.9048 32.9787 47.0925C32.5791 46.2803 33.0448 45.1655 34.0189 44.6026C34.993 44.0398 35.9139 44.7355 36.5064 45.0542C36.434 46.3238 36.4403 46.9813 35.4662 47.5441Z" fill="#BCC0E7"/>
<path d="M36.543 45.1266C34.9304 45.448 34.1455 45.8717 33.0124 47.167" stroke="#868AB7" stroke-width="0.313738"/>
<path d="M37.5508 48.2517C35.7812 48.5769 31.8616 48.778 30.2473 47.9099" stroke="#868AB7" stroke-width="0.343645"/>
<path d="M33.0918 47.2567C33.0918 47.2567 32.4036 48.1501 30.3671 47.8846" stroke="#7330E2" stroke-width="0.298048"/>
<path d="M31.2247 52.028C30.2159 51.3062 26.4824 54.4555 27.3515 55.6528C28.2206 56.8501 29.4801 53.3257 30.489 54.0474C32.0611 56.1265 27.3327 57.789 32.6698 58.5246C34.2523 57.8565 32.2336 52.7497 31.2247 52.028Z" fill="#7330E2"/>
<path d="M30.52 52.3553C30.057 50.9016 29.5107 49.1324 30.3668 47.8843" stroke="#7330E2" stroke-width="0.298048"/>
<path d="M29.5579 54.0541C28.8315 54.4825 28.0798 54.9086 28.2305 55.2091C28.3812 55.5095 29.0922 55.4058 29.8186 54.9773C30.545 54.5489 31.0116 53.958 30.8609 53.6575C30.7102 53.357 30.2843 53.6256 29.5579 54.0541Z" fill="#C4C4C4"/>
<path d="M32.7245 52.4361C31.7084 52.4378 30.4343 56.5169 31.5555 56.9182C32.6768 57.3195 32.0548 54.2205 33.071 54.2188C35.0621 54.884 32.4549 58.4226 36.5135 56.2564C37.3384 54.994 33.7406 52.4344 32.7245 52.4361Z" fill="#7330E2"/>
<path d="M32.4198 54.6901C32.0932 55.355 31.7478 56.0311 31.9819 56.1657C32.216 56.3003 32.6705 55.8704 32.997 55.2054C33.3236 54.5404 33.3986 53.8922 33.1645 53.7576C32.9305 53.623 32.7464 54.0251 32.4198 54.6901Z" fill="#C4C4C4"/>
<path d="M30.672 45.5581C29.7684 46.0638 26.9155 43.0739 27.7425 42.1575C28.5695 41.241 29.3242 44.3062 30.2278 43.8005C31.7164 42.2152 27.907 40.3713 32.4272 40.2707C33.6926 40.9811 31.5756 45.0523 30.672 45.5581Z" fill="#7330E2"/>
<path d="M29.4503 43.7056C28.8794 43.2775 28.2872 42.849 28.4384 42.6126C28.5896 42.3762 29.1749 42.5315 29.7457 42.9596C30.3165 43.3876 30.6567 43.9263 30.5056 44.1627C30.3544 44.3991 30.0211 44.1336 29.4503 43.7056Z" fill="#C4C4C4"/>
<path d="M35.8601 48.9992C35.4071 48.0143 38.2098 44.9578 39.043 45.8644C39.8761 46.7709 37.0359 47.5533 37.4889 48.5381C38.9292 50.1692 40.6889 46.0632 40.7129 50.9617C40.0381 52.3246 36.313 49.984 35.8601 48.9992Z" fill="#7330E2"/>
<path d="M37.588 47.6974C37.9914 47.0844 38.3954 46.4482 38.6114 46.6148C38.8275 46.7815 38.6756 47.4136 38.2723 48.0266C37.869 48.6396 37.3669 49.0015 37.1509 48.8348C36.9348 48.6682 37.1847 48.3105 37.588 47.6974Z" fill="#C4C4C4"/>
<path d="M33.4843 43.218C33.4536 44.0901 36.3951 45.299 36.7237 44.3481C37.0523 43.3973 34.7675 43.8432 34.7983 42.9712C35.3471 41.2813 37.8515 43.619 36.3959 40.0746C35.4991 39.331 33.515 42.346 33.4843 43.218Z" fill="#7330E2"/>
<path d="M35.1236 43.5437C35.5994 43.8428 36.0826 44.1583 36.1885 43.9611C36.2943 43.7639 35.9945 43.3615 35.5187 43.0624C35.0429 42.7633 34.5714 42.6808 34.4656 42.878C34.3597 43.0752 34.6478 43.2446 35.1236 43.5437Z" fill="#C4C4C4"/>
</svg>
